<svg width="370" height="84" xmlns="http://www.w3.org/2000/svg" xmlns:svg="http://www.w3.org/2000/svg">
 <metadata id="metadata8">image/svg+xml</metadata>
 <g class="currentLayer">
  <title>Layer 1</title>
  <path fill-opacity="0.91" id="path248" d="m240.68,82.58668l63.112,0l0,-81.33333l-63.112,0l0,81.33333z" stroke-miterlimit="10" stroke-width="0.8" stroke="#BBBBBB" fill="#999999"/>
  <path fill-opacity="0.91" id="path246" d="m171.82667,82.58668l63.112,0l0,-81.33333l-63.112,0l0,81.33333z" stroke-miterlimit="10" stroke-width="0.8" stroke="#BBBBBB" fill="#999999"/>
  <path fill-opacity="0.91" id="path244" d="m116.72267,82.58668l49.33333,0l0,-81.33333l-49.33333,0l0,81.33333z" stroke-miterlimit="10" stroke-width="0.8" stroke="#BBBBBB" fill="#999999"/>
  <path fill-opacity="0.91" id="path242" d="m64.33333,82.58668l46.66667,0l0,-81.33333l-46.66667,0l0,81.33333z" stroke-miterlimit="10" stroke-width="0.8" stroke="#BBBBBB" fill="#999999"/>
  <path stroke="#BBBBBB" fill-opacity="0.91" id="path250" d="m310.03067,82.58668l59.055727,0l0,-81.33333l-59.055727,0l0,81.33333z" stroke-miterlimit="10" stroke-width="0.8" fill="#999999"/>
  <path fill-opacity="0.91" id="path240" d="m1.22267,82.58668l57.33333,0l0,-81.33333l-57.33333,0l0,81.33333z" stroke-miterlimit="10" stroke-width="0.8" stroke="#BBBBBB" fill="#999999"/>
  <path stroke="#010101" stroke-opacity="0.75" fill-opacity="0.99" stroke-width="0.000" id="path24" d="m130,33.83335l5.22667,0l0,10.75599l10.864,0l0,-10.75599l5.22666,0l0,25.38933l-5.22666,0l0,-9.96667l-10.864,0l0,9.96667l-5.22667,0l0,-25.38933l0,0z" fill-rule="nonzero" fill="#b6b6b6"/>
  <path stroke="#010101" stroke-opacity="0.75" fill-opacity="0.99" stroke-width="0.000" id="path16" d="m19.092,38.42535l-7.24267,0l0,-4.592l19.712,0l0,4.592l-7.24266,0l0,20.79733l-5.22667,0l0,-20.79733" fill-rule="nonzero" fill="#b6b6b6"/>
  <path stroke="#010101" stroke-opacity="0.75" fill-opacity="0.99" stroke-width="0.000" id="path20" d="m34.828,39.38135l13.128,0l0,3.59066l-9.044,0l0,4.552l7.964,0l0,3.5l-7.964,0l0,4.60933l9.452,0l0,3.58934l-13.536,0l0,-19.84133l0,0z" fill-rule="nonzero" fill="#b6b6b6"/>
  <path stroke="#010101" stroke-opacity="0.75" fill-opacity="0.99" stroke-width="0.000" id="path28" d="m188.48533,47.42534c-1.26933,-1.196 -3.024,-3.472 -3.024,-3.472c0,0 0.37334,2.8 0.37334,4.63067l0,10.63867l-4.89067,0l0,-25.612l0.52267,0l12.80533,12.02266c1.232,1.156 2.98667,3.472 2.98667,3.472c0,0 -0.336,-2.876 -0.336,-4.628l0,-10.64399l4.89333,0l0,25.61199l-0.524,0l-12.80667,-12.02" fill-rule="nonzero" fill="#b6b6b6"/>
  <path stroke="#010101" stroke-opacity="0.75" fill-opacity="0.99" stroke-width="0.000" id="path32" d="m222.204,49.30268c0,-3.70534 -2.45067,-6.53334 -6.068,-6.53334c-3.61867,0 -6.06933,2.828 -6.06933,6.53334c0,3.70533 2.45066,6.536 6.06933,6.536c3.61733,0 6.068,-2.83067 6.068,-6.536zm-16.33867,0c0,-5.864 4.552,-10.18533 10.27067,-10.18533c5.71733,0 10.268,4.32133 10.268,10.18533c0,5.864 -4.55067,10.18266 -10.268,10.18266c-5.71867,0 -10.27067,-4.31866 -10.27067,-10.18266" fill-rule="nonzero" fill="#b6b6b6"/>
  <path stroke="#010101" stroke-opacity="0.75" fill-opacity="0.99" stroke-width="0.000" id="path36" d="m333.53866,51.42001l-1.60533,-3.84667c-0.71067,-1.68 -1.456,-4.25466 -1.53067,-4.516c-0.03733,0.112 -0.78399,2.764 -1.49333,4.516l-1.60533,3.84667l6.23466,0zm-3.28533,-17.80933l0.224,0l0.224,0l11.61067,25.612l-5.488,0l-1.41867,-3.436l-9.856,0l-1.41866,3.436l-5.04,0l5.58133,-12.806l5.58133,-12.806l0,0z" fill-rule="nonzero" fill="#b6b6b6"/>
  <path stroke="#010101" stroke-opacity="0.75" fill-opacity="0.99" stroke-width="0.000" id="path40" d="m349.68933,42.97201l-5.66,0l0,-3.59066l15.404,0l0,3.59066l-5.65867,0l0,16.25067l-4.08533,0l0,-16.25067" fill-rule="nonzero" fill="#b6b6b6"/>
  <path stroke="#010101" stroke-opacity="0.75" fill-opacity="0.99" stroke-width="0.000" id="path140" d="m250.516,46.52934c0,-7.50533 5.78667,-12.99466 13.06667,-12.99466c4.592,0 7.87733,1.64267 10.15466,5.18933l-3.99466,2.83867c-1.19467,-1.94267 -3.248,-3.32533 -6.16,-3.32533c-4.592,0 -7.692,3.54933 -7.692,8.29199c0,4.74267 3.1,8.36134 7.692,8.36134c3.28533,0 5.11466,-1.56667 6.532,-3.73067l4.07066,2.79867c-2.20266,3.43466 -5.712,5.59866 -10.60266,5.59866c-7.28,0 -13.06667,-5.52266 -13.06667,-13.028" fill-rule="nonzero" fill="#b6b6b6"/>
  <path stroke="#010101" stroke-opacity="0.75" fill-opacity="0.99" stroke-width="0.000" id="path144" d="m284.724,48.89334c2.01333,0 3.29733,-0.78533 3.29733,-2.97333c0,-2.21867 -1.34266,-2.948 -3.29733,-2.948l-3.15067,0l0,5.92133l3.15067,0zm-7.23467,-9.51199l7.35067,0c4.056,0 7.38267,1.896 7.38267,6.53866c0,3.00533 -1.576,4.90133 -3.88134,5.804l4.52267,7.49867l-4.668,0l-4.02667,-6.88667l-2.596,0l0,6.88667l-4.084,0l0,-9.920665l0,-9.920665l0,0z" fill-rule="nonzero" fill="#b6b6b6"/>
  <path stroke="#010101" stroke-opacity="0.75" fill-opacity="0.99" stroke-width="0.000" id="path236" d="m76.38267,46.52934c0,-7.50533 5.78533,-12.99466 13.06533,-12.99466c4.592,0 7.87733,1.64267 10.15467,5.18933l-3.99334,2.83867c-1.19466,-1.94267 -3.248,-3.32533 -6.16133,-3.32533c-4.59067,0 -7.69067,3.54933 -7.69067,8.29199c0,4.74267 3.1,8.36134 7.69067,8.36134c3.28533,0 5.11467,-1.56667 6.53333,-3.73067l4.06934,2.79867c-2.20267,3.43466 -5.712,5.59866 -10.60267,5.59866c-7.28,0 -13.06533,-5.52266 -13.06533,-13.028" fill-rule="nonzero" fill="#b6b6b6"/>
  <path stroke-width="0" id="path44" d="m14.77733,8.02668l0.88934,0l0,0.44933l-0.88934,0l0,2.95334c0,0.348 0.05067,0.55066 0.432,0.576c0.152,0 0.30534,-0.008 0.45734,-0.02534l0,0.45867c-0.16,0 -0.31334,0.016 -0.47334,0.016c-0.71333,0 -0.96,-0.236 -0.95066,-0.984l0,-2.99467l-0.764,0l0,-0.44933l0.764,0l0,-1.31467l0.53466,0l0,1.31467" fill-rule="nonzero" fill="#444444"/>
  <path stroke-width="0" id="path46" d="m20.012,9.90935c-0.02533,-0.80534 -0.52533,-1.56 -1.39067,-1.56c-0.87333,0 -1.35733,0.76266 -1.44266,1.56l2.83333,0zm-2.83333,0.45066c0.00933,0.78 0.416,1.72134 1.44266,1.72134c0.78,0 1.20534,-0.45734 1.37467,-1.12l0.53333,0c-0.228,0.99333 -0.80533,1.57066 -1.908,1.57066c-1.392,0 -1.97733,-1.06933 -1.97733,-2.316c0,-1.15466 0.58533,-2.31733 1.97733,-2.31733c1.408,0 1.968,1.23067 1.92534,2.46133l-3.368,0" fill-rule="nonzero" fill="#444444"/>
  <path stroke-width="0" id="path48" d="m21.704,12.40401l0.53437,0l0,-6.05729l-0.53437,0l0,6.05729z" fill-rule="nonzero" fill="#444444"/>
  <path stroke-width="0" id="path50" d="m23.69867,12.40401l0.53489,0l0,-6.05729l-0.53489,0l0,6.05729z" fill-rule="nonzero" fill="#444444"/>
  <path stroke-width="0" id="path52" d="m29.23067,12.40401l-0.492,0l0,-0.78933l-0.016,0c-0.28,0.58667 -0.85734,0.91733 -1.51067,0.91733c-1.10267,0 -1.536,-0.644 -1.536,-1.66266l0,-2.84267l0.53467,0l0,2.85067c0.02533,0.78933 0.32266,1.204 1.17066,1.204c0.916,0 1.31467,-0.864 1.31467,-1.75467l0,-2.3l0.53467,0l0,4.37733" fill-rule="nonzero" fill="#444444"/>
  <path stroke-width="0" id="path54" d="m30.66667,8.02668l0.49333,0l0,1.02667l0.016,0c0.272,-0.704 0.86533,-1.12 1.65467,-1.08667l0,0.53467c-0.968,-0.05067 -1.62934,0.66266 -1.62934,1.56933l0,2.33333l-0.53466,0l0,-4.37733" fill-rule="nonzero" fill="#444444"/>
  <path stroke-width="0" id="path56" d="m33.77467,8.02668l0.53333,0l0,4.37733l-0.53333,0l0,-4.37733zm0,-1.68l0.53333,0l0,0.85733l-0.53333,0l0,-0.85733" fill-rule="nonzero" fill="#444444"/>
  <path stroke-width="0" id="path58" d="m39.30533,12.40401l-0.492,0l0,-0.78933l-0.016,0c-0.28,0.58667 -0.85733,0.91733 -1.51066,0.91733c-1.10267,0 -1.536,-0.644 -1.536,-1.66266l0,-2.84267l0.53466,0l0,2.85067c0.02534,0.78933 0.32267,1.204 1.17067,1.204c0.91733,0 1.316,-0.864 1.316,-1.75467l0,-2.3l0.53333,0l0,4.37733" fill-rule="nonzero" fill="#444444"/>
  <path stroke-width="0" id="path60" d="m40.74267,8.02668l0.492,0l0,0.73867l0.02533,0c0.28,-0.52667 0.73867,-0.86667 1.43333,-0.86667c0.57734,0 1.09467,0.28 1.256,0.85733c0.26267,-0.57733 0.81467,-0.85733 1.39067,-0.85733c0.95867,0 1.45067,0.50133 1.45067,1.53733l0,2.968l-0.53467,0l0,-2.944c0,-0.72133 -0.27067,-1.11066 -1.03467,-1.11066c-0.924,0 -1.188,0.76266 -1.188,1.57733l0,2.47733l-0.53333,0l0,-2.968c0.008,-0.596 -0.23867,-1.08666 -0.916,-1.08666c-0.92533,0 -1.29867,0.696 -1.30667,1.61066l0,2.444l-0.53466,0l0,-4.37733" fill-rule="nonzero" fill="#444444"/>
  <path stroke-width="0" id="path62" d="m26.27067,20.89335c0.02533,0.824 0.644,1.37466 1.45866,1.37466c0.916,0 1.48534,-0.75466 1.48534,-1.62c0,-0.87333 -0.636,-1.544 -1.52,-1.544c-0.52534,0 -1.03334,0.25467 -1.32267,0.704l-0.45733,0l0.576,-3.08l2.96933,0l0,0.49334l-2.596,0l-0.38133,1.96666l0.01733,0.01734c0.296,-0.348 0.79733,-0.55067 1.25467,-0.55067c1.22133,0 1.99466,0.856 1.99466,2.05333c0,1.16134 -0.92533,2.01067 -2.06266,2.01067c-1.10267,0 -1.92534,-0.69733 -1.95067,-1.82533l0.53467,0" fill-rule="nonzero" fill="#444444"/>
  <path stroke-width="0" id="path64" d="m34.79067,22.59068l-3.91067,0c0.04133,-1.764 1.84933,-2.19867 2.85867,-3.20667c0.32266,-0.33066 0.492,-0.64533 0.492,-1.12c0,-0.772 -0.61067,-1.21333 -1.332,-1.21333c-0.976,0 -1.35734,0.78133 -1.34,1.65467l-0.53467,0c-0.02533,-1.22134 0.61067,-2.104 1.9,-2.104c1.03467,0 1.84133,0.568 1.84133,1.672c0,0.992 -0.72133,1.612 -1.49333,2.112c-0.57733,0.39066 -1.63733,0.916 -1.78133,1.71333l3.3,0l0,0.492" fill-rule="nonzero" fill="#444444"/>
  <path stroke-width="0" id="path66" d="m17.14533,72.21201c0.93334,-0.03467 1.51067,-0.04933 1.67067,-1.14667l0.43333,0l0,5.94l-0.53466,0l0,-4.41066l-1.56934,0l0,-0.38267" fill-rule="nonzero" fill="#444444"/>
  <path stroke-width="0" id="path68" d="m25.68267,77.00534l-3.91067,0c0.04133,-1.76533 1.84933,-2.19733 2.85867,-3.208c0.32266,-0.33066 0.492,-0.64266 0.492,-1.12c0,-0.77066 -0.61067,-1.21333 -1.332,-1.21333c-0.976,0 -1.35734,0.78133 -1.34,1.656l-0.53467,0c-0.02533,-1.22133 0.61067,-2.104 1.9,-2.104c1.03467,0 1.84133,0.568 1.84133,1.672c0,0.992 -0.72133,1.612 -1.49333,2.112c-0.57733,0.39067 -1.63733,0.91733 -1.78133,1.71333l3.3,0l0,0.492" fill-rule="nonzero" fill="#444444"/>
  <path stroke-width="0" id="path70" d="m27.04267,71.14401l3.81866,0l0,0.492c-0.73866,0.77067 -2.26666,2.604 -2.40133,5.36933l-0.57733,0c0.144,-2.00933 0.79733,-3.49466 2.444,-5.36933l-3.284,0l0,-0.492" fill-rule="nonzero" fill="#444444"/>
  <path stroke-width="0" id="path72" d="m32.57733,77.00534l0.71251,0l0,-0.9l-0.71251,0l0,0.9z" fill-rule="nonzero" fill="#444444"/>
  <path stroke-width="0" id="path74" d="m35.52267,75.15734c0,0.83867 0.44933,1.52534 1.484,1.52534c0.84933,0 1.42533,-0.70267 1.42533,-1.52534c0,-0.868 -0.52533,-1.57066 -1.43333,-1.57066c-0.93334,0 -1.476,0.69466 -1.476,1.57066zm2.76533,-2.58933c-0.09333,-0.65333 -0.55067,-1.104 -1.23867,-1.104c-1.38266,0 -1.63733,1.57867 -1.63733,2.656l0.01733,0c0.28,-0.58533 0.908,-0.984 1.57734,-0.984c1.188,0 1.96,0.82267 1.96,1.98667c0,1.15466 -0.84,2.01066 -2.01067,2.01066c-1.44133,0 -2.07867,-0.84133 -2.07867,-3.156c0,-0.70533 0.17867,-2.96133 2.12134,-2.96133c1.044,0 1.696,0.516 1.824,1.552l-0.53467,0" fill-rule="nonzero" fill="#444444"/>
  <path stroke-width="0" id="path76" d="m40.50533,74.07068c0,1.03466 0.17867,2.612 1.536,2.612c1.35734,0 1.53467,-1.57734 1.53467,-2.612c0,-1.028 -0.17733,-2.60667 -1.53467,-2.60667c-1.35733,0 -1.536,1.57867 -1.536,2.60667zm3.60534,0c0,1.39066 -0.33867,3.06266 -2.06934,3.06266c-1.732,0 -2.07066,-1.672 -2.07066,-3.05466c0,-1.39067 0.33866,-3.06267 2.07066,-3.06267c1.73067,0 2.06934,1.672 2.06934,3.05467" fill-rule="nonzero" fill="#444444"/>
  <path stroke-width="0" id="path78" d="m122.48667,6.34668l0.53466,0l0,2.43467l0.01734,0c0.19466,-0.52534 0.78,-0.88267 1.4,-0.88267c1.22933,0 1.60266,0.64533 1.60266,1.68933l0,2.816l-0.53466,0l0,-2.732c0,-0.75466 -0.24534,-1.32266 -1.11067,-1.32266c-0.848,0 -1.35733,0.64533 -1.37467,1.50133l0,2.55333l-0.53466,0l0,-6.05733" fill-rule="nonzero" fill="#444444"/>
  <path stroke-width="0" id="path80" d="m126.98533,8.02668l0.56934,0l1.44133,3.73333l1.34933,-3.73333l0.53467,0l-1.90133,5.048c-0.30534,0.73867 -0.48267,0.94933 -1.15334,0.94933c-0.212,-0.008 -0.32266,-0.008 -0.40666,-0.04133l0,-0.44933c0.12666,0.024 0.24666,0.04133 0.364,0.04133c0.476,0 0.58533,-0.28 0.764,-0.68667l0.18666,-0.5l-1.748,-4.36133" fill-rule="nonzero" fill="#444444"/>
  <path stroke-width="0" id="path82" d="m133.61333,12.08135c1.13734,0 1.536,-0.95867 1.536,-1.86534c0,-0.908 -0.39866,-1.86666 -1.536,-1.86666c-1.01733,0 -1.43333,0.95866 -1.43333,1.86666c0,0.90667 0.416,1.86534 1.43333,1.86534zm2.07067,0.32266l-0.492,0l0,-0.832l-0.01733,0c-0.22934,0.56934 -0.924,0.96 -1.56134,0.96c-1.33066,0 -1.968,-1.07866 -1.968,-2.316c0,-1.23866 0.63734,-2.31733 1.968,-2.31733c0.65467,0 1.29067,0.33067 1.52,0.95867l0.016,0l0,-2.51067l0.53467,0l0,6.05733" fill-rule="nonzero" fill="#444444"/>
  <path stroke-width="0" id="path84" d="m137.12933,8.02668l0.492,0l0,1.02667l0.01734,0c0.272,-0.704 0.86533,-1.12 1.65466,-1.08667l0,0.53467c-0.968,-0.05067 -1.62933,0.66266 -1.62933,1.56933l0,2.33333l-0.53467,0l0,-4.37733" fill-rule="nonzero" fill="#444444"/>
  <path stroke-width="0" id="path86" d="m140.39067,10.21601c0,0.93334 0.50933,1.86534 1.536,1.86534c1.02533,0 1.53466,-0.932 1.53466,-1.86534c0,-0.93466 -0.50933,-1.86666 -1.53466,-1.86666c-1.02667,0 -1.536,0.932 -1.536,1.86666zm3.60533,0c0,1.25467 -0.72933,2.316 -2.06933,2.316c-1.34134,0 -2.07067,-1.06133 -2.07067,-2.316c0,-1.256 0.72933,-2.31733 2.07067,-2.31733c1.34,0 2.06933,1.06133 2.06933,2.31733" fill-rule="nonzero" fill="#444444"/>
  <path stroke-width="0" id="path88" d="m148.38533,10.16535c0,-0.85734 -0.39866,-1.816 -1.40933,-1.816c-1.01733,0 -1.44133,0.908 -1.44133,1.816c0,0.88133 0.45866,1.73866 1.44133,1.73866c0.92533,0 1.40933,-0.848 1.40933,-1.73866zm0.53467,1.88266c-0.00933,1.30667 -0.50933,2.104 -1.944,2.104c-0.87333,0 -1.73867,-0.38933 -1.81467,-1.32266l0.53467,0c0.11867,0.644 0.68667,0.87333 1.28,0.87333c0.98533,0 1.40933,-0.58667 1.40933,-1.65467l0,-0.59466l-0.01733,0c-0.24533,0.536 -0.76267,0.9 -1.392,0.9c-1.39867,0 -1.976,-1.00134 -1.976,-2.248c0,-1.20534 0.71333,-2.20667 1.976,-2.20667c0.63733,0 1.18,0.39867 1.392,0.88267l0.01733,0l0,-0.75467l0.53467,0l0,4.02133" fill-rule="nonzero" fill="#444444"/>
  <path stroke-width="0" id="path90" d="m153.512,9.90935c-0.02533,-0.80534 -0.52533,-1.56 -1.392,-1.56c-0.87333,0 -1.35733,0.76266 -1.44133,1.56l2.83333,0zm-2.83333,0.45066c0.008,0.78 0.416,1.72134 1.44133,1.72134c0.78133,0 1.20533,-0.45734 1.37467,-1.12l0.53466,0c-0.228,0.99333 -0.80666,1.57066 -1.90933,1.57066c-1.39067,0 -1.976,-1.06933 -1.976,-2.316c0,-1.15466 0.58533,-2.31733 1.976,-2.31733c1.40933,0 1.96933,1.23067 1.92667,2.46133l-3.368,0" fill-rule="nonzero" fill="#444444"/>
  <path stroke-width="0" id="path92" d="m155.18533,8.02668l0.53467,0l0,0.75467l0.01733,0c0.19467,-0.52534 0.78,-0.88267 1.4,-0.88267c1.22934,0 1.60267,0.64533 1.60267,1.68933l0,2.816l-0.53467,0l0,-2.732c0,-0.75466 -0.24533,-1.32266 -1.11066,-1.32266c-0.848,0 -1.35734,0.64533 -1.37467,1.50133l0,2.55333l-0.53467,0l0,-4.37733" fill-rule="nonzero" fill="#444444"/>
  <path stroke-width="0" id="path94" d="m139.07733,17.79735c0.93334,-0.03334 1.51067,-0.05067 1.672,-1.14534l0.432,0l0,5.93867l-0.53466,0l0,-4.412l-1.56934,0l0,-0.38133" fill-rule="nonzero" fill="#444444"/>
  <path stroke-width="0" id="path96" d="m127.44267,72.21201c0.932,-0.03467 1.50933,-0.04933 1.67066,-1.14667l0.43334,0l0,5.94l-0.53467,0l0,-4.41066l-1.56933,0l0,-0.38267" fill-rule="nonzero" fill="#444444"/>
  <path stroke-width="0" id="path98" d="m132.58533,77.00534l0.71303,0l0,-0.9l-0.71303,0l0,0.9z" fill-rule="nonzero" fill="#444444"/>
  <path stroke-width="0" id="path100" d="m135.37067,74.07068c0,1.03466 0.17866,2.612 1.536,2.612c1.35733,0 1.53466,-1.57734 1.53466,-2.612c0,-1.028 -0.17733,-2.60667 -1.53466,-2.60667c-1.35734,0 -1.536,1.57867 -1.536,2.60667zm3.60533,0c0,1.39066 -0.33867,3.06266 -2.06933,3.06266c-1.732,0 -2.07067,-1.672 -2.07067,-3.05466c0,-1.39067 0.33867,-3.06267 2.07067,-3.06267c1.73066,0 2.06933,1.672 2.06933,3.05467" fill-rule="nonzero" fill="#444444"/>
  <path stroke-width="0" id="path102" d="m140.51467,74.07068c0,1.03466 0.17866,2.612 1.536,2.612c1.35733,0 1.53466,-1.57734 1.53466,-2.612c0,-1.028 -0.17733,-2.60667 -1.53466,-2.60667c-1.35734,0 -1.536,1.57867 -1.536,2.60667zm3.60533,0c0,1.39066 -0.34,3.06266 -2.06933,3.06266c-1.732,0 -2.07067,-1.672 -2.07067,-3.05466c0,-1.39067 0.33867,-3.06267 2.07067,-3.06267c1.72933,0 2.06933,1.672 2.06933,3.05467" fill-rule="nonzero" fill="#444444"/>
  <path stroke-width="0" id="path104" d="m145.268,71.14401l3.81733,0l0,0.492c-0.73733,0.77067 -2.26533,2.604 -2.4,5.36933l-0.57733,0c0.144,-2.00933 0.79733,-3.49466 2.444,-5.36933l-3.284,0l0,-0.492" fill-rule="nonzero" fill="#444444"/>
  <path stroke-width="0" id="path106" d="m153.712,72.99334c0,-0.84133 -0.44933,-1.52933 -1.48533,-1.52933c-0.848,0 -1.424,0.70533 -1.424,1.52933c0,0.864 0.52533,1.56667 1.43333,1.56667c0.93333,0 1.476,-0.69467 1.476,-1.56667zm-2.76533,2.58534c0.09333,0.65333 0.552,1.104 1.23866,1.104c1.38267,0 1.63734,-1.57734 1.63734,-2.656l-0.01734,0c-0.28,0.58533 -0.908,0.984 -1.57866,0.984c-1.18667,0 -1.95867,-0.82267 -1.95867,-1.984c0,-1.15334 0.84,-2.01067 2.00933,-2.01067c1.444,0 2.08,0.83867 2.08,3.156c0,0.704 -0.17866,2.96133 -2.12133,2.96133c-1.044,0 -1.69733,-0.51866 -1.824,-1.55466l0.53467,0" fill-rule="nonzero" fill="#444444"/>
  <path stroke-width="0" id="path108" d="m185.25867,8.02668l0.53466,0l0,0.75467l0.01734,0c0.19466,-0.52534 0.78,-0.88267 1.4,-0.88267c1.23066,0 1.60266,0.64533 1.60266,1.68933l0,2.816l-0.53466,0l0,-2.732c0,-0.75466 -0.24534,-1.32266 -1.11067,-1.32266c-0.848,0 -1.35733,0.64533 -1.37467,1.50133l0,2.55333l-0.53466,0l0,-4.37733" fill-rule="nonzero" fill="#444444"/>
  <path stroke-width="0" id="path110" d="m190.564,10.21601c0,0.93334 0.50933,1.86534 1.536,1.86534c1.02533,0 1.53467,-0.932 1.53467,-1.86534c0,-0.93466 -0.50934,-1.86666 -1.53467,-1.86666c-1.02667,0 -1.536,0.932 -1.536,1.86666zm3.60533,0c0,1.25467 -0.72933,2.316 -2.06933,2.316c-1.34133,0 -2.07067,-1.06133 -2.07067,-2.316c0,-1.256 0.72934,-2.31733 2.07067,-2.31733c1.34,0 2.06933,1.06133 2.06933,2.31733" fill-rule="nonzero" fill="#444444"/>
  <path stroke-width="0" id="path112" d="m197.464,8.34935c-1.13733,0 -1.536,0.95866 -1.536,1.86666c0,0.90667 0.39867,1.86534 1.536,1.86534c1.01733,0 1.43333,-0.95867 1.43333,-1.86534c0,-0.908 -0.416,-1.86666 -1.43333,-1.86666zm-2.07067,-2.00267l0.53467,0l0,2.51067l0.01733,0c0.22934,-0.628 0.86534,-0.95867 1.51867,-0.95867c1.332,0 1.968,1.07867 1.968,2.31733c0,1.23734 -0.636,2.316 -1.968,2.316c-0.704,0 -1.31467,-0.36533 -1.56133,-0.96l-0.016,0l0,0.832l-0.49334,0l0,-6.05733" fill-rule="nonzero" fill="#444444"/>
  <path stroke-width="0" id="path114" d="m203.83867,9.90935c-0.02534,-0.80534 -0.52534,-1.56 -1.39067,-1.56c-0.87467,0 -1.35867,0.76266 -1.44267,1.56l2.83334,0zm-2.83334,0.45066c0.008,0.78 0.41734,1.72134 1.44267,1.72134c0.78,0 1.20533,-0.45734 1.37467,-1.12l0.53466,0c-0.22933,0.99333 -0.80666,1.57066 -1.90933,1.57066c-1.392,0 -1.97733,-1.06933 -1.97733,-2.316c0,-1.15466 0.58533,-2.31733 1.97733,-2.31733c1.40933,0 1.96933,1.23067 1.92533,2.46133l-3.368,0" fill-rule="nonzero" fill="#444444"/>
  <path stroke-width="0" id="path116" d="m205.53067,12.40401l0.53489,0l0,-6.05729l-0.53489,0l0,6.05729z" fill-rule="nonzero" fill="#444444"/>
  <path stroke-width="0" id="path118" d="m207.52533,8.02668l0.53467,0l0,4.37733l-0.53467,0l0,-4.37733zm0,-1.68l0.53467,0l0,0.85733l-0.53467,0l0,-0.85733" fill-rule="nonzero" fill="#444444"/>
  <path stroke-width="0" id="path120" d="m213.05733,12.40401l-0.492,0l0,-0.78933l-0.016,0c-0.28,0.58667 -0.85733,0.91733 -1.51066,0.91733c-1.10267,0 -1.536,-0.644 -1.536,-1.66266l0,-2.84267l0.53466,0l0,2.85067c0.02534,0.78933 0.32267,1.204 1.172,1.204c0.91467,0 1.31467,-0.864 1.31467,-1.75467l0,-2.3l0.53333,0l0,4.37733" fill-rule="nonzero" fill="#444444"/>
  <path stroke-width="0" id="path122" d="m214.49333,8.02668l0.492,0l0,0.73867l0.02534,0c0.28,-0.52667 0.73866,-0.86667 1.43333,-0.86667c0.57733,0 1.096,0.28 1.25733,0.85733c0.26267,-0.57733 0.81334,-0.85733 1.39067,-0.85733c0.95867,0 1.45067,0.50133 1.45067,1.53733l0,2.968l-0.53467,0l0,-2.944c0,-0.72133 -0.272,-1.11066 -1.036,-1.11066c-0.924,0 -1.188,0.76266 -1.188,1.57733l0,2.47733l-0.53333,0l0,-2.968c0.008,-0.596 -0.23734,-1.08666 -0.91734,-1.08666c-0.924,0 -1.296,0.696 -1.30533,1.61066l0,2.444l-0.53467,0l0,-4.37733" fill-rule="nonzero" fill="#444444"/>
  <path stroke-width="0" id="path124" d="m196.22533,17.79735c0.93334,-0.03334 1.51067,-0.05067 1.672,-1.14534l0.43334,0l0,5.93867l-0.53467,0l0,-4.412l-1.57067,0l0,-0.38133" fill-rule="nonzero" fill="#444444"/>
  <path stroke-width="0" id="path126" d="m201.37067,19.65601c0,1.03334 0.18,2.612 1.536,2.612c1.35733,0 1.536,-1.57866 1.536,-2.612c0,-1.028 -0.17867,-2.60533 -1.536,-2.60533c-1.356,0 -1.536,1.57733 -1.536,2.60533zm3.60666,0c0,1.39067 -0.34,3.06267 -2.07066,3.06267c-1.732,0 -2.072,-1.672 -2.072,-3.05467c0,-1.39066 0.34,-3.06266 2.072,-3.06266c1.73066,0 2.07066,1.672 2.07066,3.05466" fill-rule="nonzero" fill="#444444"/>
  <path stroke-width="0" id="path128" d="m209.90933,22.59068l-3.91066,0c0.04133,-1.764 1.848,-2.19867 2.85866,-3.20667c0.32134,-0.33066 0.49067,-0.64533 0.49067,-1.12c0,-0.772 -0.61067,-1.21333 -1.332,-1.21333c-0.97467,0 -1.356,0.78133 -1.34,1.65467l-0.53467,0c-0.02533,-1.22134 0.612,-2.104 1.90134,-2.104c1.03333,0 1.84133,0.568 1.84133,1.672c0,0.992 -0.72133,1.612 -1.49467,2.112c-0.576,0.39066 -1.636,0.916 -1.78133,1.71333l3.30133,0l0,0.492" fill-rule="nonzero" fill="#444444"/>
  <path stroke-width="0" id="path130" d="m193.62133,78.62534l0,-7.804l1.36667,0l0,0.448l-0.832,0l0,6.90534l0.832,0l0,0.45066l-1.36667,0" fill-rule="nonzero" fill="#444444"/>
  <path stroke-width="0" id="path132" d="m199.664,77.00534l-3.912,0c0.04267,-1.76533 1.85067,-2.19733 2.86,-3.208c0.32267,-0.33066 0.492,-0.64266 0.492,-1.12c0,-0.77066 -0.61067,-1.21333 -1.332,-1.21333c-0.976,0 -1.35733,0.78133 -1.34,1.656l-0.53467,0c-0.02533,-1.22133 0.61067,-2.104 1.9,-2.104c1.03467,0 1.84134,0.568 1.84134,1.672c0,0.992 -0.72134,1.612 -1.49334,2.112c-0.57733,0.39067 -1.63733,0.91733 -1.78266,1.71333l3.30133,0l0,0.492" fill-rule="nonzero" fill="#444444"/>
  <path stroke-width="0" id="path134" d="m201.43333,75.30801c0.024,0.82267 0.64267,1.37467 1.45734,1.37467c0.91733,0 1.48533,-0.75467 1.48533,-1.62c0,-0.87467 -0.636,-1.544 -1.51867,-1.544c-0.52533,0 -1.03333,0.256 -1.32266,0.704l-0.45867,0l0.57733,-3.07867l2.96934,0l0,0.492l-2.596,0l-0.38267,1.96667l0.01867,0.01733c0.296,-0.348 0.796,-0.552 1.25466,-0.552c1.22134,0 1.99334,0.85733 1.99334,2.05467c0,1.16133 -0.924,2.01066 -2.06134,2.01066c-1.104,0 -1.928,-0.69733 -1.952,-1.82533l0.536,0" fill-rule="nonzero" fill="#444444"/>
  <path stroke-width="0" id="path136" d="m209.46933,72.99334c0,-0.84133 -0.45066,-1.52933 -1.484,-1.52933c-0.84933,0 -1.42666,0.70533 -1.42666,1.52933c0,0.864 0.52666,1.56667 1.43466,1.56667c0.93334,0 1.476,-0.69467 1.476,-1.56667zm-2.76533,2.58534c0.09333,0.65333 0.552,1.104 1.23867,1.104c1.38266,0 1.636,-1.57734 1.636,-2.656l-0.016,0c-0.28134,0.58533 -0.908,0.984 -1.57734,0.984c-1.188,0 -1.96133,-0.82267 -1.96133,-1.984c0,-1.15334 0.84133,-2.01067 2.01067,-2.01067c1.44266,0 2.07866,0.83867 2.07866,3.156c0,0.704 -0.17733,2.96133 -2.12,2.96133c-1.04533,0 -1.69733,-0.51866 -1.824,-1.55466l0.53467,0" fill-rule="nonzero" fill="#444444"/>
  <path stroke-width="0" id="path138" d="m212.27867,70.82134l0,7.804l-1.364,0l0,-0.45066l0.83066,0l0,-6.90534l-0.83066,0l0,-0.448l1.364,0" fill-rule="nonzero" fill="#444444"/>
  <path stroke-width="0" id="path148" d="m255.11067,9.40001c-0.14534,-0.652 -0.544,-1.05066 -1.23867,-1.05066c-1.028,0 -1.536,0.932 -1.536,1.86666c0,0.93334 0.508,1.86534 1.536,1.86534c0.66133,0 1.204,-0.51734 1.272,-1.24667l0.53467,0c-0.144,1.05333 -0.832,1.69733 -1.80667,1.69733c-1.34,0 -2.07067,-1.06133 -2.07067,-2.316c0,-1.256 0.73067,-2.31733 2.07067,-2.31733c0.93333,0 1.65333,0.50133 1.77333,1.50133l-0.53466,0" fill-rule="nonzero" fill="#444444"/>
  <path stroke-width="0" id="path150" d="m256.84267,6.34668l0.536,0l0,2.43467l0.016,0c0.196,-0.52534 0.78,-0.88267 1.4,-0.88267c1.23066,0 1.60266,0.64533 1.60266,1.68933l0,2.816l-0.53333,0l0,-2.732c0,-0.75466 -0.24667,-1.32266 -1.112,-1.32266c-0.848,0 -1.35733,0.64533 -1.37333,1.50133l0,2.55333l-0.536,0l0,-6.05733" fill-rule="nonzero" fill="#444444"/>
  <path stroke-width="0" id="path152" d="m261.83467,8.02668l0.49333,0l0,1.02667l0.016,0c0.27067,-0.704 0.86533,-1.12 1.65467,-1.08667l0,0.53467c-0.96667,-0.05067 -1.62934,0.66266 -1.62934,1.56933l0,2.33333l-0.53466,0l0,-4.37733" fill-rule="nonzero" fill="#444444"/>
  <path stroke-width="0" id="path154" d="m265.096,10.21601c0,0.93334 0.50933,1.86534 1.53467,1.86534c1.028,0 1.536,-0.932 1.536,-1.86534c0,-0.93466 -0.508,-1.86666 -1.536,-1.86666c-1.02534,0 -1.53467,0.932 -1.53467,1.86666zm3.60533,0c0,1.25467 -0.72933,2.316 -2.07066,2.316c-1.34,0 -2.06934,-1.06133 -2.06934,-2.316c0,-1.256 0.72934,-2.31733 2.06934,-2.31733c1.34133,0 2.07066,1.06133 2.07066,2.31733" fill-rule="nonzero" fill="#444444"/>
  <path stroke-width="0" id="path156" d="m269.92667,8.02668l0.492,0l0,0.73867l0.02533,0c0.27867,-0.52667 0.73733,-0.86667 1.43467,-0.86667c0.576,0 1.09333,0.28 1.25466,0.85733c0.26267,-0.57733 0.81334,-0.85733 1.39067,-0.85733c0.96,0 1.452,0.50133 1.452,1.53733l0,2.968l-0.53467,0l0,-2.944c0,-0.72133 -0.272,-1.11066 -1.036,-1.11066c-0.924,0 -1.18666,0.76266 -1.18666,1.57733l0,2.47733l-0.53467,0l0,-2.968c0.008,-0.596 -0.23867,-1.08666 -0.916,-1.08666c-0.92533,0 -1.29867,0.696 -1.308,1.61066l0,2.444l-0.53333,0l0,-4.37733" fill-rule="nonzero" fill="#444444"/>
  <path stroke-width="0" id="path158" d="m277.42933,8.02668l0.53467,0l0,4.37733l-0.53467,0l0,-4.37733zm0,-1.68l0.53467,0l0,0.85733l-0.53467,0l0,-0.85733" fill-rule="nonzero" fill="#444444"/>
  <path stroke-width="0" id="path160" d="m282.96133,12.40401l-0.49066,0l0,-0.78933l-0.01734,0c-0.28,0.58667 -0.85733,0.91733 -1.50933,0.91733c-1.104,0 -1.53733,-0.644 -1.53733,-1.66266l0,-2.84267l0.536,0l0,2.85067c0.024,0.78933 0.32133,1.204 1.16933,1.204c0.91733,0 1.316,-0.864 1.316,-1.75467l0,-2.3l0.53333,0l0,4.37733" fill-rule="nonzero" fill="#444444"/>
  <path stroke-width="0" id="path162" d="m284.39867,8.02668l0.492,0l0,0.73867l0.02533,0c0.28,-0.52667 0.73867,-0.86667 1.43467,-0.86667c0.57733,0 1.09333,0.28 1.256,0.85733c0.26266,-0.57733 0.81333,-0.85733 1.39066,-0.85733c0.95867,0 1.45067,0.50133 1.45067,1.53733l0,2.968l-0.53467,0l0,-2.944c0,-0.72133 -0.27066,-1.11066 -1.03466,-1.11066c-0.92534,0 -1.188,0.76266 -1.188,1.57733l0,2.47733l-0.53334,0l0,-2.968c0.008,-0.596 -0.23866,-1.08666 -0.91733,-1.08666c-0.924,0 -1.29733,0.696 -1.30667,1.61066l0,2.444l-0.53466,0l0,-4.37733" fill-rule="nonzero" fill="#444444"/>
  <path stroke-width="0" id="path164" d="m270.52,22.59068l-3.90933,0c0.04133,-1.764 1.848,-2.19867 2.85733,-3.20667c0.32267,-0.33066 0.492,-0.64533 0.492,-1.12c0,-0.772 -0.61067,-1.21333 -1.332,-1.21333c-0.97467,0 -1.356,0.78133 -1.34,1.65467l-0.53467,0c-0.02533,-1.22134 0.61067,-2.104 1.90134,-2.104c1.03466,0 1.84133,0.568 1.84133,1.672c0,0.992 -0.72133,1.612 -1.49467,2.112c-0.576,0.39066 -1.63733,0.916 -1.78,1.71333l3.29867,0l0,0.492" fill-rule="nonzero" fill="#444444"/>
  <path stroke-width="0" id="path166" d="m274.444,20.66535l0,-3.23334l-0.01733,0l-2.24,3.23334l2.25733,0zm-2.74133,-0.068l2.74933,-3.94534l0.484,0l0,4.01334l0.89067,0l0,0.448l-0.89067,0l0,1.47733l-0.492,0l0,-1.47733l-2.74133,0l0,-0.516" fill-rule="nonzero" fill="#444444"/>
  <path stroke-width="0" id="path168" d="m258.12533,75.30801c0.02667,0.82267 0.64534,1.37467 1.46,1.37467c0.91467,0 1.484,-0.75467 1.484,-1.62c0,-0.87467 -0.636,-1.544 -1.51733,-1.544c-0.52667,0 -1.036,0.256 -1.32533,0.704l-0.45734,0l0.576,-3.07867l2.97067,0l0,0.492l-2.596,0l-0.38267,1.96667l0.01734,0.01733c0.29733,-0.348 0.79733,-0.552 1.256,-0.552c1.22266,0 1.99333,0.85733 1.99333,2.05467c0,1.16133 -0.92533,2.01066 -2.06133,2.01066c-1.10267,0 -1.92667,-0.69733 -1.95067,-1.82533l0.53333,0" fill-rule="nonzero" fill="#444444"/>
  <path stroke-width="0" id="path170" d="m263.25333,72.21201c0.93334,-0.03467 1.51067,-0.04933 1.672,-1.14667l0.432,0l0,5.94l-0.53466,0l0,-4.41066l-1.56934,0l0,-0.38267" fill-rule="nonzero" fill="#444444"/>
  <path stroke-width="0" id="path172" d="m268.39733,77.00534l0.71355,0l0,-0.9l-0.71355,0l0,0.9z" fill-rule="nonzero" fill="#444444"/>
  <path stroke-width="0" id="path174" d="m274.092,72.99334c0,-0.84133 -0.44933,-1.52933 -1.484,-1.52933c-0.84933,0 -1.42667,0.70533 -1.42667,1.52933c0,0.864 0.52667,1.56667 1.43334,1.56667c0.93466,0 1.47733,-0.69467 1.47733,-1.56667zm-2.76533,2.58534c0.092,0.65333 0.55066,1.104 1.23733,1.104c1.38267,0 1.63867,-1.57734 1.63867,-2.656l-0.01734,0c-0.28,0.58533 -0.908,0.984 -1.57733,0.984c-1.18933,0 -1.96,-0.82267 -1.96,-1.984c0,-1.15334 0.84,-2.01067 2.01067,-2.01067c1.44133,0 2.07733,0.83867 2.07733,3.156c0,0.704 -0.17867,2.96133 -2.12133,2.96133c-1.04267,0 -1.696,-0.51866 -1.824,-1.55466l0.536,0" fill-rule="nonzero" fill="#444444"/>
  <path stroke-width="0" id="path176" d="m279.236,72.99334c0,-0.84133 -0.44933,-1.52933 -1.484,-1.52933c-0.84933,0 -1.42533,0.70533 -1.42533,1.52933c0,0.864 0.52533,1.56667 1.43333,1.56667c0.93333,0 1.476,-0.69467 1.476,-1.56667zm-2.76533,2.58534c0.092,0.65333 0.55066,1.104 1.23866,1.104c1.38267,0 1.63734,-1.57734 1.63734,-2.656l-0.016,0c-0.28,0.58533 -0.90934,0.984 -1.57867,0.984c-1.18933,0 -1.96,-0.82267 -1.96,-1.984c0,-1.15334 0.84,-2.01067 2.01067,-2.01067c1.44133,0 2.07866,0.83867 2.07866,3.156c0,0.704 -0.17866,2.96133 -2.12133,2.96133c-1.04267,0 -1.69733,-0.51866 -1.824,-1.55466l0.53467,0" fill-rule="nonzero" fill="#444444"/>
  <path stroke-width="0" id="path178" d="m281.632,75.15734c0,0.83867 0.44933,1.52534 1.484,1.52534c0.84933,0 1.42667,-0.70267 1.42667,-1.52534c0,-0.868 -0.52667,-1.57066 -1.43334,-1.57066c-0.93466,0 -1.47733,0.69466 -1.47733,1.57066zm2.76533,-2.58933c-0.09333,-0.65333 -0.552,-1.104 -1.23733,-1.104c-1.38267,0 -1.63867,1.57867 -1.63867,2.656l0.01734,0c0.28,-0.58533 0.90666,-0.984 1.57733,-0.984c1.188,0 1.96,0.82267 1.96,1.98667c0,1.15466 -0.84,2.01066 -2.01067,2.01066c-1.44266,0 -2.07733,-0.84133 -2.07733,-3.156c0,-0.70533 0.17733,-2.96133 2.12133,-2.96133c1.04267,0 1.696,0.516 1.82267,1.552l-0.53467,0" fill-rule="nonzero" fill="#444444"/>
  <path stroke-width="0" id="path180" d="m326.88,10.01201l-0.01733,0c-0.068,0.12667 -0.30534,0.16934 -0.44934,0.19467c-0.908,0.16133 -2.036,0.15333 -2.036,1.01067c0,0.53333 0.47467,0.864 0.97467,0.864c0.81467,0 1.53733,-0.51734 1.528,-1.37334l0,-0.696zm-2.85067,-0.64533c0.05067,-1.02667 0.772,-1.468 1.77334,-1.468c0.772,0 1.612,0.23867 1.612,1.40933l0,2.324c0,0.20267 0.10133,0.32267 0.31333,0.32267c0.05867,0 0.12667,-0.016 0.16933,-0.03333l0,0.44933c-0.11866,0.024 -0.20266,0.03333 -0.34666,0.03333c-0.544,0 -0.628,-0.30533 -0.628,-0.76266l-0.01734,0c-0.37333,0.568 -0.75466,0.89066 -1.59466,0.89066c-0.80667,0 -1.46934,-0.4 -1.46934,-1.28133c0,-1.23067 1.19734,-1.272 2.35067,-1.40933c0.44133,-0.05067 0.688,-0.10934 0.688,-0.59334c0,-0.72133 -0.51733,-0.89866 -1.14667,-0.89866c-0.66133,0 -1.15333,0.30533 -1.17066,1.01733l-0.53334,0" fill-rule="nonzero" fill="#444444"/>
  <path stroke-width="0" id="path182" d="m331.53066,9.30801c-0.02533,-0.66133 -0.53333,-0.95866 -1.144,-0.95866c-0.476,0 -1.03599,0.18666 -1.03599,0.75466c0,0.47467 0.54266,0.64534 0.90799,0.73734l0.712,0.16133c0.61067,0.09467 1.248,0.44933 1.248,1.21467c0,0.94933 -0.94133,1.31466 -1.75733,1.31466c-1.01733,0 -1.71333,-0.476 -1.79733,-1.544l0.53333,0c0.04267,0.72134 0.57867,1.09334 1.29067,1.09334c0.5,0 1.196,-0.22 1.196,-0.83067c0,-0.50933 -0.47467,-0.67867 -0.96,-0.79867l-0.68534,-0.152c-0.69733,-0.18666 -1.22266,-0.424 -1.22266,-1.17066c0,-0.89067 0.87333,-1.23067 1.64533,-1.23067c0.87333,0 1.57067,0.45867 1.604,1.40933l-0.53467,0" fill-rule="nonzero" fill="#444444"/>
  <path stroke-width="0" id="path184" d="m334.26666,8.02668l0.89067,0l0,0.44933l-0.89067,0l0,2.95334c0,0.348 0.05067,0.55066 0.432,0.576c0.152,0 0.304,-0.008 0.45867,-0.02534l0,0.45867c-0.16133,0 -0.31467,0.016 -0.476,0.016c-0.71333,0 -0.95867,-0.236 -0.95067,-0.984l0,-2.99467l-0.76266,0l0,-0.44933l0.76266,0l0,-1.31467l0.536,0l0,1.31467" fill-rule="nonzero" fill="#444444"/>
  <path stroke-width="0" id="path186" d="m339.15466,10.01201l-0.01733,0c-0.068,0.12667 -0.30533,0.16934 -0.44933,0.19467c-0.908,0.16133 -2.036,0.15333 -2.036,1.01067c0,0.53333 0.47466,0.864 0.97466,0.864c0.816,0 1.53734,-0.51734 1.528,-1.37334l0,-0.696zm-2.85066,-0.64533c0.05066,-1.02667 0.772,-1.468 1.77333,-1.468c0.772,0 1.612,0.23867 1.612,1.40933l0,2.324c0,0.20267 0.10133,0.32267 0.31333,0.32267c0.05867,0 0.12667,-0.016 0.16934,-0.03333l0,0.44933c-0.11734,0.024 -0.20267,0.03333 -0.34667,0.03333c-0.544,0 -0.628,-0.30533 -0.628,-0.76266l-0.01733,0c-0.37334,0.568 -0.75467,0.89066 -1.59467,0.89066c-0.80667,0 -1.468,-0.4 -1.468,-1.28133c0,-1.23067 1.196,-1.272 2.34933,-1.40933c0.44134,-0.05067 0.688,-0.10934 0.688,-0.59334c0,-0.72133 -0.51733,-0.89866 -1.14666,-0.89866c-0.66134,0 -1.15334,0.30533 -1.17067,1.01733l-0.53333,0" fill-rule="nonzero" fill="#444444"/>
  <path stroke-width="0" id="path188" d="m342.032,8.02668l0.892,0l0,0.44933l-0.892,0l0,2.95334c0,0.348 0.052,0.55066 0.43333,0.576c0.152,0 0.30533,-0.008 0.45867,-0.02534l0,0.45867c-0.16134,0 -0.31334,0.016 -0.476,0.016c-0.71334,0 -0.95734,-0.236 -0.94934,-0.984l0,-2.99467l-0.764,0l0,-0.44933l0.764,0l0,-1.31467l0.53334,0l0,1.31467" fill-rule="nonzero" fill="#444444"/>
  <path stroke-width="0" id="path190" d="m344.12933,8.02668l0.536,0l0,4.37733l-0.536,0l0,-4.37733zm0,-1.68l0.536,0l0,0.85733l-0.536,0l0,-0.85733" fill-rule="nonzero" fill="#444444"/>
  <path stroke-width="0" id="path192" d="m346.108,8.02668l0.53466,0l0,0.75467l0.01734,0c0.19466,-0.52534 0.78,-0.88267 1.39866,-0.88267c1.23067,0 1.604,0.64533 1.604,1.68933l0,2.816l-0.53466,0l0,-2.732c0,-0.75466 -0.24534,-1.32266 -1.112,-1.32266c-0.848,0 -1.356,0.64533 -1.37334,1.50133l0,2.55333l-0.53466,0l0,-4.37733" fill-rule="nonzero" fill="#444444"/>
  <path stroke-width="0" id="path194" d="m354.24666,9.90935c-0.024,-0.80534 -0.52533,-1.56 -1.39066,-1.56c-0.87334,0 -1.35734,0.76266 -1.44267,1.56l2.83333,0zm-2.83333,0.45066c0.00933,0.78 0.416,1.72134 1.44267,1.72134c0.78,0 1.204,-0.45734 1.37333,-1.12l0.536,0c-0.22933,0.99333 -0.80667,1.57066 -1.90933,1.57066c-1.392,0 -1.976,-1.06933 -1.976,-2.316c0,-1.15466 0.584,-2.31733 1.976,-2.31733c1.408,0 1.968,1.23067 1.92533,2.46133l-3.368,0" fill-rule="nonzero" fill="#444444"/>
  <path stroke-width="0" id="path196" d="m337.97333,18.08535c0,-0.67867 -0.55067,-1.03467 -1.264,-1.03467c-0.65333,0 -1.272,0.356 -1.272,1.03467c0,0.79866 0.644,1.12 1.272,1.10266c0.65333,0.01734 1.264,-0.33866 1.264,-1.10266zm0.24667,2.84266c0,-0.85733 -0.71334,-1.30666 -1.51067,-1.28933c-0.81467,-0.01733 -1.50933,0.416 -1.50933,1.28933c0,0.89067 0.67866,1.34 1.50933,1.34c0.832,0 1.51067,-0.43333 1.51067,-1.34zm-0.67867,-1.528l0,-0.008l0,0.01734c0.76267,0.152 1.21333,0.72 1.21333,1.51866c0,1.196 -0.93333,1.79067 -2.04533,1.79067c-1.11067,0 -2.044,-0.59467 -2.044,-1.79067c0.016,-0.772 0.47467,-1.38266 1.204,-1.51866l0,-0.01734c-0.61867,-0.18666 -0.96667,-0.65333 -0.96667,-1.30666c0,-1.01867 0.92534,-1.484 1.79867,-1.484c0.88133,0 1.80667,0.46533 1.80667,1.484c0,0.644 -0.36534,1.12933 -0.96667,1.31466" fill-rule="nonzero" fill="#444444"/>
  <path stroke-width="0" id="path198" d="m340.33466,20.89335c0.02667,0.824 0.64534,1.37466 1.46,1.37466c0.916,0 1.484,-0.75466 1.484,-1.62c0,-0.87333 -0.636,-1.544 -1.51733,-1.544c-0.52667,0 -1.036,0.25467 -1.324,0.704l-0.45867,0l0.57734,-3.08l2.96933,0l0,0.49334l-2.596,0l-0.38133,1.96666l0.016,0.01734c0.29733,-0.348 0.79733,-0.55067 1.256,-0.55067c1.22266,0 1.99333,0.856 1.99333,2.05333c0,1.16134 -0.924,2.01067 -2.06133,2.01067c-1.10267,0 -1.92534,-0.69733 -1.95067,-1.82533l0.53333,0" fill-rule="nonzero" fill="#444444"/>
  <path stroke-width="0" id="path200" d="m329.95333,78.62534l0,-7.804l1.36667,0l0,0.448l-0.83067,0l0,6.90534l0.83067,0l0,0.45066l-1.36667,0" fill-rule="nonzero" fill="#444444"/>
  <path stroke-width="0" id="path202" d="m335.996,77.00534l-3.91067,0c0.04133,-1.76533 1.84933,-2.19733 2.85867,-3.208c0.32266,-0.33066 0.492,-0.64266 0.492,-1.12c0,-0.77066 -0.61067,-1.21333 -1.332,-1.21333c-0.976,0 -1.35734,0.78133 -1.34,1.656l-0.536,0c-0.024,-1.22133 0.61066,-2.104 1.90133,-2.104c1.036,0 1.84133,0.568 1.84133,1.672c0,0.992 -0.72133,1.612 -1.49333,2.112c-0.57733,0.39067 -1.63867,0.91733 -1.78133,1.71333l3.3,0l0,0.492" fill-rule="nonzero" fill="#444444"/>
  <path stroke-width="0" id="path204" d="m337.74666,72.21201c0.93334,-0.03467 1.51067,-0.04933 1.672,-1.14667l0.432,0l0,5.94l-0.53466,0l0,-4.41066l-1.56934,0l0,-0.38267" fill-rule="nonzero" fill="#444444"/>
  <path stroke-width="0" id="path206" d="m342.89066,74.07068c0,1.03466 0.17867,2.612 1.536,2.612c1.35734,0 1.536,-1.57734 1.536,-2.612c0,-1.028 -0.17866,-2.60667 -1.536,-2.60667c-1.35733,0 -1.536,1.57867 -1.536,2.60667zm3.60667,0c0,1.39066 -0.33867,3.06266 -2.07067,3.06266c-1.73066,0 -2.06933,-1.672 -2.06933,-3.05466c0,-1.39067 0.33867,-3.06267 2.06933,-3.06267c1.732,0 2.07067,1.672 2.07067,3.05467" fill-rule="nonzero" fill="#444444"/>
  <path stroke-width="0" id="path208" d="m348.612,70.82134l0,7.804l-1.36534,0l0,-0.45066l0.832,0l0,-6.90534l-0.832,0l0,-0.448l1.36534,0" fill-rule="nonzero" fill="#444444"/>
  <path stroke-width="0" id="path210" d="m77.61467,9.40001c-0.144,-0.652 -0.54267,-1.05066 -1.23867,-1.05066c-1.02667,0 -1.536,0.932 -1.536,1.86666c0,0.93334 0.50933,1.86534 1.536,1.86534c0.66133,0 1.20533,-0.51734 1.272,-1.24667l0.53467,0c-0.144,1.05333 -0.83067,1.69733 -1.80667,1.69733c-1.34,0 -2.07067,-1.06133 -2.07067,-2.316c0,-1.256 0.73067,-2.31733 2.07067,-2.31733c0.93333,0 1.65467,0.50133 1.77333,1.50133l-0.53466,0" fill-rule="nonzero" fill="#444444"/>
  <path stroke-width="0" id="path212" d="m82.156,10.01201l-0.01733,0c-0.06667,0.12667 -0.30534,0.16934 -0.44934,0.19467c-0.908,0.16133 -2.036,0.15333 -2.036,1.01067c0,0.53333 0.476,0.864 0.976,0.864c0.81467,0 1.536,-0.51734 1.52667,-1.37334l0,-0.696zm-2.85067,-0.64533c0.052,-1.02667 0.77334,-1.468 1.77334,-1.468c0.772,0 1.612,0.23867 1.612,1.40933l0,2.324c0,0.20267 0.10266,0.32267 0.31333,0.32267c0.06,0 0.128,-0.016 0.17067,-0.03333l0,0.44933c-0.11867,0.024 -0.204,0.03333 -0.348,0.03333c-0.54267,0 -0.628,-0.30533 -0.628,-0.76266l-0.01734,0c-0.37333,0.568 -0.75466,0.89066 -1.59466,0.89066c-0.80667,0 -1.468,-0.4 -1.468,-1.28133c0,-1.23067 1.196,-1.272 2.35066,-1.40933c0.44134,-0.05067 0.68667,-0.10934 0.68667,-0.59334c0,-0.72133 -0.51733,-0.89866 -1.14533,-0.89866c-0.66134,0 -1.15334,0.30533 -1.17067,1.01733l-0.53467,0" fill-rule="nonzero" fill="#444444"/>
  <path stroke-width="0" id="path214" d="m84.18667,8.02668l0.492,0l0,1.02667l0.01733,0c0.272,-0.704 0.86533,-1.12 1.65467,-1.08667l0,0.53467c-0.968,-0.05067 -1.62934,0.66266 -1.62934,1.56933l0,2.33333l-0.53466,0l0,-4.37733" fill-rule="nonzero" fill="#444444"/>
  <path stroke-width="0" id="path216" d="m89.35467,8.34935c-1.136,0 -1.53467,0.95866 -1.53467,1.86666c0,0.90667 0.39867,1.86534 1.53467,1.86534c1.01866,0 1.43466,-0.95867 1.43466,-1.86534c0,-0.908 -0.416,-1.86666 -1.43466,-1.86666zm-2.06934,-2.00267l0.53467,0l0,2.51067l0.016,0c0.22933,-0.628 0.86533,-0.95867 1.51867,-0.95867c1.332,0 1.96933,1.07867 1.96933,2.31733c0,1.23734 -0.63733,2.316 -1.96933,2.316c-0.704,0 -1.31467,-0.36533 -1.56,-0.96l-0.01734,0l0,0.832l-0.492,0l0,-6.05733" fill-rule="nonzero" fill="#444444"/>
  <path stroke-width="0" id="path218" d="m92.896,10.21601c0,0.93334 0.50933,1.86534 1.536,1.86534c1.02533,0 1.53467,-0.932 1.53467,-1.86534c0,-0.93466 -0.50934,-1.86666 -1.53467,-1.86666c-1.02667,0 -1.536,0.932 -1.536,1.86666zm3.60533,0c0,1.25467 -0.72933,2.316 -2.06933,2.316c-1.34133,0 -2.07067,-1.06133 -2.07067,-2.316c0,-1.256 0.72934,-2.31733 2.07067,-2.31733c1.34,0 2.06933,1.06133 2.06933,2.31733" fill-rule="nonzero" fill="#444444"/>
  <path stroke-width="0" id="path220" d="m97.71733,8.02668l0.53467,0l0,0.75467l0.01733,0c0.19467,-0.52534 0.78,-0.88267 1.39867,-0.88267c1.23067,0 1.604,0.64533 1.604,1.68933l0,2.816l-0.53467,0l0,-2.732c0,-0.75466 -0.24533,-1.32266 -1.11066,-1.32266c-0.84934,0 -1.35734,0.64533 -1.37467,1.50133l0,2.55333l-0.53467,0l0,-4.37733" fill-rule="nonzero" fill="#444444"/>
  <path stroke-width="0" id="path222" d="m86.52,20.74135c0,0.84 0.44933,1.52666 1.484,1.52666c0.84933,0 1.42533,-0.704 1.42533,-1.52666c0,-0.86534 -0.52533,-1.57067 -1.43333,-1.57067c-0.93333,0 -1.476,0.696 -1.476,1.57067zm2.76533,-2.588c-0.09333,-0.65334 -0.55066,-1.10267 -1.23866,-1.10267c-1.38267,0 -1.63734,1.57733 -1.63734,2.656l0.01734,0c0.28,-0.58667 0.908,-0.984 1.57733,-0.984c1.188,0 1.96,0.82267 1.96,1.98533c0,1.15334 -0.84,2.01067 -2.01067,2.01067c-1.44133,0 -2.07866,-0.84 -2.07866,-3.15733c0,-0.704 0.17866,-2.96 2.12133,-2.96c1.044,0 1.69733,0.516 1.824,1.552l-0.53467,0" fill-rule="nonzero" fill="#444444"/>
  <path stroke-width="0" id="path224" d="m74.72267,72.21201c0.93333,-0.03467 1.51066,-0.04933 1.67066,-1.14667l0.43334,0l0,5.94l-0.53467,0l0,-4.41066l-1.56933,0l0,-0.38267" fill-rule="nonzero" fill="#444444"/>
  <path stroke-width="0" id="path226" d="m83.26,77.00534l-3.91067,0c0.04134,-1.76533 1.84934,-2.19733 2.85867,-3.208c0.32267,-0.33066 0.492,-0.64266 0.492,-1.12c0,-0.77066 -0.61067,-1.21333 -1.332,-1.21333c-0.976,0 -1.35733,0.78133 -1.34,1.656l-0.53467,0c-0.02533,-1.22133 0.61067,-2.104 1.9,-2.104c1.03467,0 1.84134,0.568 1.84134,1.672c0,0.992 -0.72134,1.612 -1.49334,2.112c-0.576,0.39067 -1.63733,0.91733 -1.78133,1.71333l3.3,0l0,0.492" fill-rule="nonzero" fill="#444444"/>
  <path stroke-width="0" id="path228" d="m85.01067,77.00534l0.7125,0l0,-0.9l-0.7125,0l0,0.9z" fill-rule="nonzero" fill="#444444"/>
  <path stroke-width="0" id="path230" d="m87.79467,74.07068c0,1.03466 0.17866,2.612 1.536,2.612c1.35733,0 1.53466,-1.57734 1.53466,-2.612c0,-1.028 -0.17733,-2.60667 -1.53466,-2.60667c-1.35734,0 -1.536,1.57867 -1.536,2.60667zm3.60533,0c0,1.39066 -0.33867,3.06266 -2.06933,3.06266c-1.73067,0 -2.07067,-1.672 -2.07067,-3.05466c0,-1.39067 0.34,-3.06267 2.07067,-3.06267c1.73066,0 2.06933,1.672 2.06933,3.05467" fill-rule="nonzero" fill="#444444"/>
  <path stroke-width="0" id="path232" d="m92.93867,72.21201c0.93333,-0.03467 1.51066,-0.04933 1.672,-1.14667l0.432,0l0,5.94l-0.53467,0l0,-4.41066l-1.56933,0l0,-0.38267" fill-rule="nonzero" fill="#444444"/>
  <path stroke-width="0" id="path234" d="m98.08267,72.21201c0.93333,-0.03467 1.51066,-0.04933 1.67066,-1.14667l0.43334,0l0,5.94l-0.53467,0l0,-4.41066l-1.56933,0l0,-0.38267" fill-rule="nonzero" fill="#444444"/>
 </g>
</svg>
