<svg xmlns="http://www.w3.org/2000/svg" xmlns:svg="http://www.w3.org/2000/svg" width="378" height="84"><rect id="backgroundrect" width="100%" height="100%" x="0" y="0" fill="none" stroke="none"/>
 <metadata id="metadata8">image/svg+xml</metadata>

 <g style="" class="currentLayer">
  <title>Layer 1</title>


    <path fill="#003399" fill-rule="nonzero" d="m19.092001505925325,38.425345040773095 l-7.242666593524142,0 l0,-4.5919999536261304 l19.711999800931686,0 l0,4.5919999536261304 l-7.242666593524142,0 l0,20.79733312330441 l-5.226666613883402,0 l0,-20.79733312330441 " id="path16" stroke-width="2" class="" opacity="0.75" fill-opacity="0.75" stroke-opacity="0.75" stroke="#6699FF"/>
    <path fill="#003399" stroke="#6699FF" stroke-width="0.6666666599341073" stroke-miterlimit="10" d="m19.092001505925325,38.425345040773095 l-7.242666593524142,0 l0,-4.5919999536261304 l19.711999800931686,0 l0,4.5919999536261304 l-7.242666593524142,0 l0,20.79733312330441 l-5.226666613883402,0 l0,-20.79733312330441 z" id="path18" class="" opacity="0.75" fill-opacity="0.75" stroke-opacity="0.75"/>
    <path fill="#003399" fill-rule="nonzero" d="m34.82800134700999,39.3813450311186 l13.12799986742244,0 l0,3.5906666304051016 l-9.0439999086661,0 l0,4.551999954030085 l7.963999919572845,0 l0,3.499999964654063 l-7.963999919572845,0 l0,4.609333286784418 l9.451999904545772,0 l0,3.589333297085234 l-13.535999863302115,0 l0,-19.8413331329589 " id="path20" stroke-width="2" class="" opacity="0.75" fill-opacity="0.75" stroke-opacity="0.75" stroke="#6699FF"/>
    <path fill="#003399" stroke="#6699FF" stroke-width="0.6666666599341073" stroke-miterlimit="10" d="m34.82800134700999,39.3813450311186 l13.12799986742244,0 l0,3.5906666304051016 l-9.0439999086661,0 l0,4.551999954030085 l7.963999919572845,0 l0,3.499999964654063 l-7.963999919572845,0 l0,4.609333286784418 l9.451999904545772,0 l0,3.589333297085234 l-13.535999863302115,0 l0,-19.8413331329589 z" id="path22" class="" opacity="0.75" fill-opacity="0.75" stroke-opacity="0.75"/>
    <path fill="#003399" fill-rule="nonzero" d="m130.00000038588325,33.83334508714694 l5.226666613883402,0 l0,10.755999891376888 l10.863999890286212,0 l0,-10.755999891376888 l5.226666613883402,0 l0,25.38933307693054 l-5.226666613883402,0 l0,-9.966666566014904 l-10.863999890286212,0 l0,9.966666566014904 l-5.226666613883402,0 l0,-25.38933307693054 " id="path24" stroke-width="2" class="" opacity="0.75" fill-opacity="0.75" stroke-opacity="0.75" stroke="#6699FF"/>
    <path fill="#003399" stroke="#6699FF" stroke-width="0.6666666599341073" stroke-miterlimit="10" d="m130.00000038588325,33.83334508714694 l5.226666613883402,0 l0,10.755999891376888 l10.863999890286212,0 l0,-10.755999891376888 l5.226666613883402,0 l0,25.38933307693054 l-5.226666613883402,0 l0,-9.966666566014904 l-10.863999890286212,0 l0,9.966666566014904 l-5.226666613883402,0 l0,-25.38933307693054 z" id="path26" class="" opacity="0.75" fill-opacity="0.75" stroke-opacity="0.75"/>
    <path fill="#003399" fill-rule="nonzero" d="m188.48533312858262,47.42534494988354 c-1.2693333205145403,-1.1959999879217886 -3.023999969461111,-3.4719999649368307 -3.023999969461111,-3.4719999649368307 c0,0 0.37333332956310006,2.7999999717232504 0.37333332956310006,4.630666619902309 l0,10.638666559228485 l-4.890666617276611,0 l0,-25.611999741348534 l0.5226666613883401,0 l12.805333204014334,12.022666545251692 c1.2319999875582304,1.1559999883257421 2.9866666365048005,3.4719999649368307 2.9866666365048005,3.4719999649368307 c0,0 -0.3359999966067901,-2.8759999709557387 -0.3359999966067901,-4.627999953262573 l0,-10.643999892507956 l4.8933332839163475,0 l0,25.611999741348534 l-0.5239999947082083,0 l-12.8066665373342,-12.019999878611955 " id="path28" stroke-width="2" class="" opacity="0.75" fill-opacity="0.75" stroke-opacity="0.75" stroke="#6699FF"/>
    <path fill="#003399" stroke="#6699FF" stroke-width="0.6666666599341073" stroke-miterlimit="10" d="m188.48533312858262,47.42534494988354 c-1.2693333205145403,-1.1959999879217886 -3.023999969461111,-3.4719999649368307 -3.023999969461111,-3.4719999649368307 c0,0 0.37333332956310006,2.7999999717232504 0.37333332956310006,4.630666619902309 l0,10.638666559228485 l-4.890666617276611,0 l0,-25.611999741348534 l0.5226666613883401,0 l12.805333204014334,12.022666545251692 c1.2319999875582304,1.1559999883257421 2.9866666365048005,3.4719999649368307 2.9866666365048005,3.4719999649368307 c0,0 -0.3359999966067901,-2.8759999709557387 -0.3359999966067901,-4.627999953262573 l0,-10.643999892507956 l4.8933332839163475,0 l0,25.611999741348534 l-0.5239999947082083,0 l-12.8066665373342,-12.019999878611955 z" id="path30" class="" opacity="0.75" fill-opacity="0.75" stroke-opacity="0.75"/>
    <path fill="#003399" fill-rule="nonzero" d="m222.2039994547299,49.30267826425796 c0,-3.705333295913768 -2.450666641917778,-6.5333332673542515 -6.067999938720244,-6.5333332673542515 c-3.6186666301223345,0 -6.069333272040113,2.8279999714404833 -6.069333272040113,6.5333332673542515 c0,3.705333295913768 2.450666641917778,6.535999933993988 6.069333272040113,6.535999933993988 c3.617333296802466,0 6.067999938720244,-2.8306666380802197 6.067999938720244,-6.535999933993988 zm-16.338666501665102,0 c0,-5.863999940780407 4.551999954030085,-10.185333230473292 10.270666562944857,-10.185333230473292 c5.717333275594904,0 10.26799989630512,4.321333289692883 10.26799989630512,10.185333230473292 c0,5.863999940780407 -4.550666620710217,10.182666563833555 -10.26799989630512,10.182666563833555 c-5.718666608914773,0 -10.270666562944857,-4.318666623053147 -10.270666562944857,-10.182666563833555 " id="path32" stroke-width="2" class="" opacity="0.75" fill-opacity="0.75" stroke-opacity="0.75" stroke="#6699FF"/>
    <path fill="#003399" stroke="#6699FF" stroke-width="0.6666666599341073" stroke-miterlimit="10" d="m222.2039994547299,49.30267826425796 c0,-3.705333295913768 -2.450666641917778,-6.5333332673542515 -6.067999938720244,-6.5333332673542515 c-3.6186666301223345,0 -6.069333272040113,2.8279999714404833 -6.069333272040113,6.5333332673542515 c0,3.705333295913768 2.450666641917778,6.535999933993988 6.069333272040113,6.535999933993988 c3.617333296802466,0 6.067999938720244,-2.8306666380802197 6.067999938720244,-6.535999933993988 zm-16.338666501665102,0 c0,-5.863999940780407 4.551999954030085,-10.185333230473292 10.270666562944857,-10.185333230473292 c5.717333275594904,0 10.26799989630512,4.321333289692883 10.26799989630512,10.185333230473292 c0,5.863999940780407 -4.550666620710217,10.182666563833555 -10.26799989630512,10.182666563833555 c-5.718666608914773,0 -10.270666562944857,-4.318666623053147 -10.270666562944857,-10.182666563833555 z" id="path34" class="" opacity="0.75" fill-opacity="0.75" stroke-opacity="0.75"/>
    <path fill="#003399" fill-rule="nonzero" d="m337.03866496169974,51.42001157620871 l-1.6053333171213302,-3.846666627819799 c-0.7106666594897584,-1.6799999830339503 -1.4559999852960903,-4.254666623699473 -1.5306666512087104,-4.515999954393642 c-0.037333332956310014,0.11199999886893003 -0.7839999920825101,2.763999972086809 -1.4933333182524002,4.515999954393642 l-1.6053333171213302,3.846666627819799 l6.234666603703771,0 zm-3.2853333001552807,-17.80933315347974 l0.44799999547572006,0 l11.610666549412413,25.611999741348534 l-5.487999944577571,0 l-1.4186666523397804,-3.4359999653003888 l-9.855999900465843,0 l-1.4186666523397804,3.4359999653003888 l-5.03999994910185,0 l11.162666553936692,-25.611999741348534 " id="path36" stroke-width="2" class="" opacity="0.75" fill-opacity="0.75" stroke-opacity="0.75" stroke="#6699FF"/>
    <path fill="#003399" stroke="#6699FF" stroke-width="0.6666666599341073" stroke-miterlimit="10" d="m337.03866496169974,51.42001157620871 l-1.6053333171213302,-3.846666627819799 c-0.7106666594897584,-1.6799999830339503 -1.4559999852960903,-4.254666623699473 -1.5306666512087104,-4.515999954393642 c-0.037333332956310014,0.11199999886893003 -0.7839999920825101,2.763999972086809 -1.4933333182524002,4.515999954393642 l-1.6053333171213302,3.846666627819799 l6.234666603703771,0 zm-3.2853333001552807,-17.80933315347974 l0.44799999547572006,0 l11.610666549412413,25.611999741348534 l-5.487999944577571,0 l-1.4186666523397804,-3.4359999653003888 l-9.855999900465843,0 l-1.4186666523397804,3.4359999653003888 l-5.03999994910185,0 l11.162666553936692,-25.611999741348534 z" id="path38" class="" opacity="0.75" fill-opacity="0.75" stroke-opacity="0.75"/>
    <path fill="#003399" fill-rule="nonzero" d="m353.1893314652634,42.97201166152371 l-5.659999942840571,0 l0,-3.5906666304051016 l15.403999844437482,0 l0,3.5906666304051016 l-5.6586666095207026,0 l0,16.2506665025538 l-4.08533329207621,0 l0,-16.2506665025538 " id="path40" stroke-width="2" class="" opacity="0.75" fill-opacity="0.75" stroke-opacity="0.75" stroke="#6699FF"/>
    <path fill="#003399" stroke="#6699FF" stroke-width="0.6666666599341073" stroke-miterlimit="10" d="m353.1893314652634,42.97201166152371 l-5.659999942840571,0 l0,-3.5906666304051016 l15.403999844437482,0 l0,3.5906666304051016 l-5.6586666095207026,0 l0,16.2506665025538 l-4.08533329207621,0 l0,-16.2506665025538 z" id="path42" class="" opacity="0.75" fill-opacity="0.75" stroke-opacity="0.75"/>
    <path fill="#7b7979" fill-rule="nonzero" d="m14.777334882831767,8.026678681097621 l0.8893333243520991,0 l0,0.44933332879558835 l-0.8893333243520991,0 l0,2.9533333035080953 c0,0.34799999648560404 0.050666666154992164,0.5506666611055726 0.43199999563730157,0.5759999941830687 c0.15199999846497647,0 0.3053333302498211,-0.00799999991920929 0.4573333287147976,-0.025333333077496082 l0,0.45866666203466583 c-0.15999999838418574,0 -0.3133333301690304,0.015999999838418575 -0.47333332855321614,0.015999999838418575 c-0.7133333261294947,0 -0.9599999903051145,-0.23599999761667398 -0.9506666570660369,-0.9839999900627423 l0,-2.99466663642401 l-0.763999992284487,0 l0,-0.44933332879558835 l0.763999992284487,0 l0,-1.3146666533900595 l0.534666661267154,0 l0,1.3146666533900595 " id="path44" stroke-width="0" class=""/>
    <path fill="#7b7979" fill-rule="nonzero" d="m20.012001496634397,9.909345328751613 c-0.025333333077496082,-0.8053333252004016 -0.5253333280280765,-1.559999984245811 -1.3906666526225477,-1.559999984245811 c-0.8733333245136805,0 -1.3573333196258424,0.7626666589646187 -1.4426666520974083,1.559999984245811 l2.833333304719956,0 zm-2.833333304719956,0.45066666211545653 c0.009333333239077504,0.7799999921229055 0.41599999579888297,1.721333315949865 1.4426666520974083,1.721333315949865 c0.7799999921229055,0 1.205333321160866,-0.4573333287147976 1.3746666527841294,-1.1199999886893004 l0.5333333279472858,0 c-0.22799999769746468,0.9933333233018199 -0.8053333252004016,1.5706666508047566 -1.9079999807314152,1.5706666508047566 c-1.391999985942416,0 -1.9773333133645623,-1.069333322534308 -1.9773333133645623,-2.315999976611089 c0,-1.1546666550058737 0.5853333274221462,-2.317333309930957 1.9773333133645623,-2.317333309930957 c1.4079999857808347,0 1.9679999801254846,1.2306666542383622 1.9253333138897017,2.4613333084767244 l-3.36799996598711,0 " id="path46" stroke-width="0" class=""/>
    <path fill="#7b7979" fill-rule="nonzero" d="m21.70400147954713,12.404011970225042 l0.5343733279367829,0 l0,-6.0572932721617025 l-0.5343733279367829,0 l0,6.0572932721617025 z" id="path48" stroke-width="0" class=""/>
    <path fill="#7b7979" fill-rule="nonzero" d="m23.69866812606999,12.404011970225042 l0.5348933279315317,0 l0,-6.0572932721617025 l-0.5348933279315317,0 l0,6.0572932721617025 z" id="path50" stroke-width="0" class=""/>
    <path fill="#7b7979" fill-rule="nonzero" d="m29.23066807020321,12.404011970225042 l-0.4919999950313712,0 l0,-0.789333325361983 l-0.015999999838418575,0 c-0.2799999971723251,0.5866666607420145 -0.8573333246752619,0.9173333240693317 -1.510666651410687,0.9173333240693317 c-1.1026666555310134,0 -1.535999984488183,-0.6439999934963476 -1.535999984488183,-1.6626666498756637 l0,-2.8426666379590335 l0.534666661267154,0 l0,2.8506666378782426 c0.025333333077496082,0.789333325361983 0.3226666634081079,1.2039999878409977 1.1706666548442923,1.2039999878409977 c0.9159999907494635,0 1.3146666533900595,-0.8639999912746031 1.3146666533900595,-1.7546666489465703 l0,-2.29999997677267 l0.534666661267154,0 l0,4.377333289127348 " id="path52" stroke-width="0" class=""/>
    <path fill="#7b7979" fill-rule="nonzero" d="m30.666668055701294,8.026678681097621 l0.49333332835123944,0 l0,1.0266666562985252 l0.015999999838418575,0 c0.2719999972531158,-0.7039999928904174 0.8653333245944713,-1.1199999886893004 1.6546666499564544,-1.086666655692595 l0,0.534666661267154 c-0.9679999902243237,-0.050666666154992164 -1.6293333168789583,0.6626666599745026 -1.6293333168789583,1.5693333174848885 l0,2.3333333097693756 l-0.534666661267154,0 l0,-4.377333289127348 " id="path54" stroke-width="0" class=""/>
    <path fill="#7b7979" fill-rule="nonzero" d="m33.774668024314096,8.026678681097621 l0.5333333279472858,0 l0,4.377333289127348 l-0.5333333279472858,0 l0,-4.377333289127348 zm0,-1.6799999830339503 l0.5333333279472858,0 l0,0.8573333246752619 l-0.5333333279472858,0 l0,-0.8573333246752619 " id="path56" stroke-width="0" class=""/>
    <path fill="#7b7979" fill-rule="nonzero" d="m39.30533463512744,12.404011970225042 l-0.4919999950313712,0 l0,-0.789333325361983 l-0.015999999838418575,0 c-0.2799999971723251,0.5866666607420145 -0.8573333246752619,0.9173333240693317 -1.510666651410687,0.9173333240693317 c-1.1026666555310134,0 -1.535999984488183,-0.6439999934963476 -1.535999984488183,-1.6626666498756637 l0,-2.8426666379590335 l0.534666661267154,0 l0,2.8506666378782426 c0.025333333077496082,0.789333325361983 0.3226666634081079,1.2039999878409977 1.1706666548442923,1.2039999878409977 c0.9173333240693317,0 1.315999986709928,-0.8639999912746031 1.315999986709928,-1.7546666489465703 l0,-2.29999997677267 l0.5333333279472858,0 l0,4.377333289127348 " id="path58" stroke-width="0" class=""/>
    <path fill="#7b7979" fill-rule="nonzero" d="m40.74266795394537,8.026678681097621 l0.4919999950313712,0 l0,0.7386666592069909 l0.025333333077496082,0 c0.2799999971723251,-0.5266666613479448 0.7386666592069909,-0.8666666579143395 1.4333333188583306,-0.8666666579143395 c0.5773333275029369,0 1.0946666556118043,0.2799999971723251 1.255999987315858,0.8573333246752619 c0.26266666401403826,-0.5773333275029369 0.8146666584394792,-0.8573333246752619 1.3906666526225477,-0.8573333246752619 c0.9586666569852463,0 1.4506666520166176,0.5013333282704487 1.4506666520166176,1.5373333178080513 l0,2.967999970026646 l-0.534666661267154,0 l0,-2.9439999702690174 c0,-0.7213333260487041 -0.2706666639332475,-1.1106666554502227 -1.0346666562177345,-1.1106666554502227 c-0.9239999906686727,0 -1.187999988002579,0.7626666589646187 -1.187999988002579,1.5773333174040978 l0,2.4773333083151425 l-0.5333333279472858,0 l0,-2.967999970026646 c0.00799999991920929,-0.5959999939810919 -0.23866666425641042,-1.086666655692595 -0.9159999907494635,-1.086666655692595 c-0.925333323988541,0 -1.2986666535516411,0.695999992971208 -1.3066666534708504,1.6106666504008031 l0,2.443999975318437 l-0.534666661267154,0 l0,-4.377333289127348 " id="path60" stroke-width="0" class=""/>
    <path fill="#7b7979" fill-rule="nonzero" d="m26.27066810009576,20.893345217825924 c0.025333333077496082,0.8239999916785565 0.6439999934963476,1.3746666527841294 1.4586666519358267,1.3746666527841294 c0.9159999907494635,0 1.4853333183331912,-0.7546666590454094 1.4853333183331912,-1.6199999836398808 c0,-0.8733333245136805 -0.6359999935771383,-1.5439999844073924 -1.5199999846497647,-1.5439999844073924 c-0.5253333280280765,0 -1.0333333228978663,0.254666664094829 -1.3226666533092688,0.7039999928904174 l-0.4573333287147976,0 l0.5759999941830687,-3.0799999688955757 l2.969333303346514,0 l0,0.49333332835123944 l-2.5959999737834134,0 l-0.3813333294823094,1.9666666468056164 l0.01733333315828679,0.01733333315828679 c0.29599999701074364,-0.34799999648560404 0.7973333252811924,-0.5506666611055726 1.2546666539959899,-0.5506666611055726 c1.2213333209992845,0 1.994666646522849,0.8559999913553937 1.994666646522849,2.0533333125970503 c0,1.161333321605215 -0.925333323988541,2.0106666463612677 -2.0626666458361282,2.0106666463612677 c-1.1026666555310134,0 -1.9253333138897017,-0.6973333262910762 -1.950666646967198,-1.8253333148995856 l0.534666661267154,0 " id="path62" stroke-width="0" class=""/>
    <path fill="#7b7979" fill-rule="nonzero" d="m34.79066801405368,22.59067853401814 l-3.910666627173473,0 c0.04133333291591466,-1.763999982185648 1.8493333146572137,-2.1986666444626857 2.858666637797452,-3.206666634283056 c0.3226666634081079,-0.3306666633273172 0.4919999950313712,-0.6453333268162158 0.4919999950313712,-1.1199999886893004 c0,-0.7719999922036962 -0.6106666604996422,-1.2133333210800752 -1.3319999865483463,-1.2133333210800752 c-0.9759999901435331,0 -1.3573333196258424,0.7813333254427738 -1.3399999864675558,1.6546666499564544 l-0.534666661267154,0 c-0.025333333077496082,-1.2213333209992845 0.6106666604996422,-2.1039999787520425 1.8999999808122057,-2.1039999787520425 c1.0346666562177345,0 1.8413333147380044,0.5679999942638594 1.8413333147380044,1.671999983114741 c0,0.9919999899819517 -0.7213333260487041,1.6119999837206713 -1.4933333182524002,2.111999978671252 c-0.5773333275029369,0.3906666627213869 -1.6373333167981674,0.9159999907494635 -1.7813333153439346,1.7133333160306556 l3.299999966673831,0 l0,0.4919999950313712 " id="path64" stroke-width="0" class=""/>
    <path fill="#7b7979" fill-rule="nonzero" d="m17.145334858917735,72.21201136623364 c0.9333333239077501,-0.03466666631657358 1.510666651410687,-0.04933333283512394 1.6706666497948728,-1.1466666550866644 l0.43333332895716975,0 l0,5.939999940012895 l-0.534666661267154,0 l0,-4.410666622124054 l-1.5693333174848885,0 l0,-0.3826666628021776 " id="path66" stroke-width="0" class=""/>
    <path fill="#7b7979" fill-rule="nonzero" d="m25.682668106033887,77.00534465115987 l-3.910666627173473,0 c0.04133333291591466,-1.7653333155055162 1.8493333146572137,-2.1973333111428177 2.858666637797452,-3.207999967602924 c0.3226666634081079,-0.3306666633273172 0.4919999950313712,-0.6426666601764794 0.4919999950313712,-1.1199999886893004 c0,-0.770666658883828 -0.6106666604996422,-1.2133333210800752 -1.3319999865483463,-1.2133333210800752 c-0.9759999901435331,0 -1.3573333196258424,0.7813333254427738 -1.3399999864675558,1.6559999832763226 l-0.534666661267154,0 c-0.025333333077496082,-1.2213333209992845 0.6106666604996422,-2.1039999787520425 1.8999999808122057,-2.1039999787520425 c1.0346666562177345,0 1.8413333147380044,0.5679999942638594 1.8413333147380044,1.671999983114741 c0,0.9919999899819517 -0.7213333260487041,1.6119999837206713 -1.4933333182524002,2.111999978671252 c-0.5773333275029369,0.3906666627213869 -1.6373333167981674,0.9173333240693317 -1.7813333153439346,1.7133333160306556 l3.299999966673831,0 l0,0.4919999950313712 " id="path68" stroke-width="0" class=""/>
    <path fill="#7b7979" fill-rule="nonzero" d="m27.04266809229948,71.14401137701918 l3.8186666281025667,0 l0,0.4919999950313712 c-0.7386666592069909,0.770666658883828 -2.266666643775965,2.6039999737026234 -2.4013333090826547,5.3693332791093 l-0.5773333275029369,0 c0.14399999854576717,-2.0093333130413993 0.7973333252811924,-3.4946666313745904 2.443999975318437,-5.3693332791093 l-3.2839999668354123,0 l0,-0.4919999950313712 " id="path70" stroke-width="0" class=""/>
    <path fill="#7b7979" fill-rule="nonzero" d="m32.577334703072424,77.00534465115987 l0.7125066594711765,0 l0,-0.8999999909110449 l-0.7125066594711765,0 l0,0.8999999909110449 z" id="path72" stroke-width="0" class=""/>
    <path fill="#7b7979" fill-rule="nonzero" d="m35.522668006661334,75.15734466982252 c0,0.838666658197107 0.44933332879558835,1.5253333179292374 1.483999985013323,1.5253333179292374 c0.8493333247560527,0 1.4253333189391213,-0.702666659570549 1.4253333189391213,-1.5253333179292374 c0,-0.8679999912342077 -0.5253333280280765,-1.5706666508047566 -1.4333333188583306,-1.5706666508047566 c-0.9333333239077501,0 -1.4759999850941137,0.6946666596513398 -1.4759999850941137,1.5706666508047566 zm2.765333305406677,-2.5893333071840727 c-0.09333333239077503,-0.6533333267354252 -0.5506666611055726,-1.1039999888508816 -1.2386666541575713,-1.1039999888508816 c-1.3826666527033384,0 -1.6373333167981674,1.578666650723966 -1.6373333167981674,2.6559999731774835 l0.01733333315828679,0 c0.2799999971723251,-0.5853333274221462 0.9079999908302542,-0.9839999900627423 1.5773333174040978,-0.9839999900627423 c1.187999988002579,0 1.9599999802062753,0.8226666583586884 1.9599999802062753,1.9866666466036398 c0,1.1546666550058737 -0.8399999915169751,2.0106666463612677 -2.0106666463612677,2.0106666463612677 c-1.4413333187775401,0 -2.0786666456745464,-0.8413333248368434 -2.0786666456745464,-3.155999968128064 c0,-0.7053333262102855 0.17866666486234076,-2.961333303427305 2.1213333119103295,-2.961333303427305 c1.043999989456812,0 1.695999982872369,0.515999994788999 1.8239999815797174,1.551999984326602 l-0.534666661267154,0 " id="path74" stroke-width="0" class=""/>
    <path fill="#7b7979" fill-rule="nonzero" d="m40.505334623008835,74.07067801412995 c0,1.0346666562177345 0.17866666486234076,2.6119999736218324 1.535999984488183,2.6119999736218324 c1.3573333196258424,0 1.534666651168315,-1.5773333174040978 1.534666651168315,-2.6119999736218324 c0,-1.0279999896183933 -0.17733333154247255,-2.6066666403423597 -1.534666651168315,-2.6066666403423597 c-1.3573333196258424,0 -1.535999984488183,1.578666650723966 -1.535999984488183,2.6066666403423597 zm3.6053332969236522,0 c0,1.3906666526225477 -0.3386666632465265,3.0626666357372887 -2.069333312435469,3.0626666357372887 c-1.7319999825088108,0 -2.0706666457553373,-1.671999983114741 -2.0706666457553373,-3.0546666358180796 c0,-1.3906666526225477 0.3386666632465265,-3.0626666357372887 2.0706666457553373,-3.0626666357372887 c1.7306666491889426,0 2.069333312435469,1.671999983114741 2.069333312435469,3.0546666358180796 " id="path76" stroke-width="0" class=""/>
    <path fill="#7b7979" fill-rule="nonzero" d="m122.48666712842588,6.34667869806367 l0.534666661267154,0 l0,2.43466664207936 l0.01733333315828679,0 c0.19466666470075933,-0.5253333280280765 0.7799999921229055,-0.8826666577527581 1.3999999858616252,-0.8826666577527581 c1.229333320918494,0 1.6026666504815938,0.6453333268162158 1.6026666504815938,1.689333316273028 l0,2.8159999715616695 l-0.534666661267154,0 l0,-2.7319999724099713 c0,-0.7546666590454094 -0.24533333085575149,-1.3226666533092688 -1.1106666554502227,-1.3226666533092688 c-0.8479999914361845,0 -1.3573333196258424,0.6453333268162158 -1.3746666527841294,1.5013333181716095 l0,2.5533333075476308 l-0.534666661267154,0 l0,-6.057333272161299 " id="path78" stroke-width="0" class=""/>
    <path fill="#7b7979" fill-rule="nonzero" d="m126.98533374966125,8.026678681097621 l0.5693333275837276,0 l1.4413333187775401,3.7333332956310006 l1.349333319706633,-3.7333332956310006 l0.534666661267154,0 l-1.9013333141320738,5.04799994902106 c-0.3053333302498211,0.7386666592069909 -0.48266666179229367,0.9493333237461687 -1.1533333216860056,0.9493333237461687 c-0.21199999785904614,-0.00799999991920929 -0.3226666634081079,-0.00799999991920929 -0.40666666255980544,-0.04133333291591466 l0,-0.44933332879558835 c0.1266666653874804,0.023999999757627864 0.24666666417561972,0.04133333291591466 0.3639999963240226,0.04133333291591466 c0.47599999519295266,0 0.5853333274221462,-0.2799999971723251 0.763999992284487,-0.6866666597321306 l0.18666666478155003,-0.49999999495058045 l-1.7479999823472292,-4.36133328928893 " id="path80" stroke-width="0" class=""/>
    <path fill="#7b7979" fill-rule="nonzero" d="m133.61333368272614,12.0813453068169 c1.137333321847587,0 1.535999984488183,-0.9586666569852463 1.535999984488183,-1.865333314495632 c0,-0.9079999908302542 -0.3986666626405962,-1.8666666478155003 -1.535999984488183,-1.8666666478155003 c-1.0173333230594477,0 -1.4333333188583306,0.9586666569852463 -1.4333333188583306,1.8666666478155003 c0,0.9066666575103859 0.41599999579888297,1.865333314495632 1.4333333188583306,1.865333314495632 zm2.0706666457553373,0.3226666634081079 l-0.4919999950313712,0 l0,-0.8319999915977659 l-0.01733333315828679,0 c-0.22933333101733294,0.5693333275837276 -0.9239999906686727,0.9599999903051145 -1.5613333175656794,0.9599999903051145 c-1.330666653228478,0 -1.9679999801254846,-1.0786666557733855 -1.9679999801254846,-2.315999976611089 c0,-1.2386666541575713 0.6373333268970066,-2.317333309930957 1.9679999801254846,-2.317333309930957 c0.6546666600552934,0 1.2906666536324316,0.3306666633273172 1.5199999846497647,0.9586666569852463 l0.015999999838418575,0 l0,-2.5106666413118477 l0.534666661267154,0 l0,6.057333272161299 " id="path82" stroke-width="0" class=""/>
    <path fill="#7b7979" fill-rule="nonzero" d="m137.12933364721863,8.026678681097621 l0.4919999950313712,0 l0,1.0266666562985252 l0.01733333315828679,0 c0.2719999972531158,-0.7039999928904174 0.8653333245944713,-1.1199999886893004 1.6546666499564544,-1.086666655692595 l0,0.534666661267154 c-0.9679999902243237,-0.050666666154992164 -1.6293333168789583,0.6626666599745026 -1.6293333168789583,1.5693333174848885 l0,2.3333333097693756 l-0.534666661267154,0 l0,-4.377333289127348 " id="path84" stroke-width="0" class=""/>
    <path fill="#7b7979" fill-rule="nonzero" d="m140.3906669476163,10.216011992321228 c0,0.9333333239077501 0.509333328189658,1.865333314495632 1.535999984488183,1.865333314495632 c1.025333322978657,0 1.534666651168315,-0.931999990587882 1.534666651168315,-1.865333314495632 c0,-0.9346666572276184 -0.509333328189658,-1.8666666478155003 -1.534666651168315,-1.8666666478155003 c-1.0266666562985252,0 -1.535999984488183,0.931999990587882 -1.535999984488183,1.8666666478155003 zm3.6053332969236522,0 c0,1.2546666539959899 -0.7293333259679133,2.315999976611089 -2.069333312435469,2.315999976611089 c-1.341333319787424,0 -2.0706666457553373,-1.0613333226150987 -2.0706666457553373,-2.315999976611089 c0,-1.255999987315858 0.7293333259679133,-2.317333309930957 2.0706666457553373,-2.317333309930957 c1.3399999864675558,0 2.069333312435469,1.0613333226150987 2.069333312435469,2.317333309930957 " id="path86" stroke-width="0" class=""/>
    <path fill="#7b7979" fill-rule="nonzero" d="m148.3853335335461,10.165345326166232 c0,-0.8573333246752619 -0.3986666626405962,-1.8159999816605084 -1.409333319100703,-1.8159999816605084 c-1.0173333230594477,0 -1.4413333187775401,0.9079999908302542 -1.4413333187775401,1.8159999816605084 c0,0.8813333244328899 0.45866666203466583,1.7386666491081517 1.4413333187775401,1.7386666491081517 c0.925333323988541,0 1.409333319100703,-0.8479999914361845 1.409333319100703,-1.7386666491081517 zm0.534666661267154,1.882666647653919 c-0.009333333239077504,1.3066666534708504 -0.509333328189658,2.1039999787520425 -1.943999980367857,2.1039999787520425 c-0.8733333245136805,0 -1.7386666491081517,-0.38933332940151866 -1.81466664834064,-1.3226666533092688 l0.534666661267154,0 c0.11866666546827111,0.6439999934963476 0.6866666597321306,0.8733333245136805 1.279999987073486,0.8733333245136805 c0.9853333233826105,0 1.409333319100703,-0.5866666607420145 1.409333319100703,-1.6546666499564544 l0,-0.5946666606612236 l-0.01733333315828679,0 c-0.24533333085575149,0.5359999945870222 -0.7626666589646187,0.8999999909110449 -1.391999985942416,0.8999999909110449 c-1.398666652541757,0 -1.9759999800446941,-1.001333323221029 -1.9759999800446941,-2.24799997729781 c0,-1.205333321160866 0.7133333261294947,-2.206666644381895 1.9759999800446941,-2.206666644381895 c0.6373333268970066,0 1.1799999880833698,0.3986666626405962 1.391999985942416,0.8826666577527581 l0.01733333315828679,0 l0,-0.7546666590454094 l0.534666661267154,0 l0,4.021333292722535 " id="path88" stroke-width="0" class=""/>
    <path fill="#7b7979" fill-rule="nonzero" d="m153.5120001484393,9.909345328751613 c-0.025333333077496082,-0.8053333252004016 -0.5253333280280765,-1.559999984245811 -1.391999985942416,-1.559999984245811 c-0.8733333245136805,0 -1.3573333196258424,0.7626666589646187 -1.4413333187775401,1.559999984245811 l2.833333304719956,0 zm-2.833333304719956,0.45066666211545653 c0.00799999991920929,0.7799999921229055 0.41599999579888297,1.721333315949865 1.4413333187775401,1.721333315949865 c0.7813333254427738,0 1.205333321160866,-0.4573333287147976 1.3746666527841294,-1.1199999886893004 l0.534666661267154,0 c-0.22799999769746468,0.9933333233018199 -0.8066666585202698,1.5706666508047566 -1.9093333140512834,1.5706666508047566 c-1.3906666526225477,0 -1.9759999800446941,-1.069333322534308 -1.9759999800446941,-2.315999976611089 c0,-1.1546666550058737 0.5853333274221462,-2.317333309930957 1.9759999800446941,-2.317333309930957 c1.409333319100703,0 1.9693333134453528,1.2306666542383622 1.92666664720957,2.4613333084767244 l-3.36799996598711,0 " id="path90" stroke-width="0" class=""/>
    <path fill="#7b7979" fill-rule="nonzero" d="m155.18533346487396,8.026678681097621 l0.534666661267154,0 l0,0.7546666590454094 l0.01733333315828679,0 c0.19466666470075933,-0.5253333280280765 0.7799999921229055,-0.8826666577527581 1.3999999858616252,-0.8826666577527581 c1.229333320918494,0 1.6026666504815938,0.6453333268162158 1.6026666504815938,1.689333316273028 l0,2.8159999715616695 l-0.534666661267154,0 l0,-2.7319999724099713 c0,-0.7546666590454094 -0.24533333085575149,-1.3226666533092688 -1.1106666554502227,-1.3226666533092688 c-0.8479999914361845,0 -1.3573333196258424,0.6453333268162158 -1.3746666527841294,1.5013333181716095 l0,2.5533333075476308 l-0.534666661267154,0 l0,-4.377333289127348 " id="path92" stroke-width="0" class=""/>
    <path fill="#7b7979" fill-rule="nonzero" d="m139.07733362754607,17.797345249091904 c0.9333333239077501,-0.033333332996705364 1.510666651410687,-0.050666666154992164 1.671999983114741,-1.1453333217667963 l0.43199999563730157,0 l0,5.938666606693028 l-0.534666661267154,0 l0,-4.411999955443923 l-1.5693333174848885,0 l0,-0.3813333294823094 " id="path94" stroke-width="0" class=""/>
    <path fill="#7b7979" fill-rule="nonzero" d="m127.44266707837603,72.21201136623364 c0.931999990587882,-0.03466666631657358 1.5093333180908188,-0.04933333283512394 1.6706666497948728,-1.1466666550866644 l0.43333332895716975,0 l0,5.939999940012895 l-0.534666661267154,0 l0,-4.410666622124054 l-1.5693333174848885,0 l0,-0.3826666628021776 " id="path96" stroke-width="0" class=""/>
    <path fill="#7b7979" fill-rule="nonzero" d="m132.58533369310777,77.00534465115987 l0.713026659465925,0 l0,-0.8999999909110449 l-0.713026659465925,0 l0,0.8999999909110449 z" id="path98" stroke-width="0" class=""/>
    <path fill="#7b7979" fill-rule="nonzero" d="m135.37066699831246,74.07067801412995 c0,1.0346666562177345 0.17866666486234076,2.6119999736218324 1.535999984488183,2.6119999736218324 c1.3573333196258424,0 1.534666651168315,-1.5773333174040978 1.534666651168315,-2.6119999736218324 c0,-1.0279999896183933 -0.17733333154247255,-2.6066666403423597 -1.534666651168315,-2.6066666403423597 c-1.3573333196258424,0 -1.535999984488183,1.578666650723966 -1.535999984488183,2.6066666403423597 zm3.6053332969236522,0 c0,1.3906666526225477 -0.3386666632465265,3.0626666357372887 -2.069333312435469,3.0626666357372887 c-1.7319999825088108,0 -2.0706666457553373,-1.671999983114741 -2.0706666457553373,-3.0546666358180796 c0,-1.3906666526225477 0.3386666632465265,-3.0626666357372887 2.0706666457553373,-3.0626666357372887 c1.7306666491889426,0 2.069333312435469,1.671999983114741 2.069333312435469,3.0546666358180796 " id="path100" stroke-width="0" class=""/>
    <path fill="#7b7979" fill-rule="nonzero" d="m140.514666946364,74.07067801412995 c0,1.0346666562177345 0.17866666486234076,2.6119999736218324 1.535999984488183,2.6119999736218324 c1.3573333196258424,0 1.534666651168315,-1.5773333174040978 1.534666651168315,-2.6119999736218324 c0,-1.0279999896183933 -0.17733333154247255,-2.6066666403423597 -1.534666651168315,-2.6066666403423597 c-1.3573333196258424,0 -1.535999984488183,1.578666650723966 -1.535999984488183,2.6066666403423597 zm3.6053332969236522,0 c0,1.3906666526225477 -0.3399999965663947,3.0626666357372887 -2.069333312435469,3.0626666357372887 c-1.7319999825088108,0 -2.0706666457553373,-1.671999983114741 -2.0706666457553373,-3.0546666358180796 c0,-1.3906666526225477 0.3386666632465265,-3.0626666357372887 2.0706666457553373,-3.0626666357372887 c1.7293333158690745,0 2.069333312435469,1.671999983114741 2.069333312435469,3.0546666358180796 " id="path102" stroke-width="0" class=""/>
    <path fill="#7b7979" fill-rule="nonzero" d="m145.2680002316942,71.14401137701918 l3.8173332947826983,0 l0,0.4919999950313712 c-0.7373333258871226,0.770666658883828 -2.2653333104560964,2.6039999737026234 -2.3999999757627863,5.3693332791093 l-0.5773333275029369,0 c0.14399999854576717,-2.0093333130413993 0.7973333252811924,-3.4946666313745904 2.443999975318437,-5.3693332791093 l-3.2839999668354123,0 l0,-0.4919999950313712 " id="path104" stroke-width="0" class=""/>
    <path fill="#7b7979" fill-rule="nonzero" d="m153.7120001464196,72.99334469167638 c0,-0.8413333248368434 -0.44933332879558835,-1.5293333178888422 -1.4853333183331912,-1.5293333178888422 c-0.8479999914361845,0 -1.4239999856192531,0.7053333262102855 -1.4239999856192531,1.5293333178888422 c0,0.8639999912746031 0.5253333280280765,1.566666650845152 1.4333333188583306,1.566666650845152 c0.9333333239077501,0 1.4759999850941137,-0.6946666596513398 1.4759999850941137,-1.566666650845152 zm-2.765333305406677,2.585333307224468 c0.09333333239077503,0.6533333267354252 0.5519999944254408,1.1039999888508816 1.2386666541575713,1.1039999888508816 c1.3826666527033384,0 1.6373333167981674,-1.5773333174040978 1.6373333167981674,-2.6559999731774835 l-0.01733333315828679,0 c-0.2799999971723251,0.5853333274221462 -0.9079999908302542,0.9839999900627423 -1.578666650723966,0.9839999900627423 c-1.186666654682711,0 -1.9586666468864071,-0.8226666583586884 -1.9586666468864071,-1.9839999799639034 c0,-1.1533333216860056 0.8399999915169751,-2.0106666463612677 2.0093333130413993,-2.0106666463612677 c1.4439999854172765,0 2.079999978994415,0.838666658197107 2.079999978994415,3.155999968128064 c0,0.7039999928904174 -0.17866666486234076,2.961333303427305 -2.1213333119103295,2.961333303427305 c-1.043999989456812,0 -1.6973333161922373,-0.5186666614287355 -1.8239999815797174,-1.5546666509663383 l0.534666661267154,0 " id="path106" stroke-width="0" class=""/>
    <path fill="#7b7979" fill-rule="nonzero" d="m185.25866649450154,8.026678681097621 l0.534666661267154,0 l0,0.7546666590454094 l0.01733333315828679,0 c0.19466666470075933,-0.5253333280280765 0.7799999921229055,-0.8826666577527581 1.3999999858616252,-0.8826666577527581 c1.2306666542383622,0 1.6026666504815938,0.6453333268162158 1.6026666504815938,1.689333316273028 l0,2.8159999715616695 l-0.534666661267154,0 l0,-2.7319999724099713 c0,-0.7546666590454094 -0.24533333085575149,-1.3226666533092688 -1.1106666554502227,-1.3226666533092688 c-0.8479999914361845,0 -1.3573333196258424,0.6453333268162158 -1.3746666527841294,1.5013333181716095 l0,2.5533333075476308 l-0.534666661267154,0 l0,-4.377333289127348 " id="path108" stroke-width="0" class=""/>
    <path fill="#7b7979" fill-rule="nonzero" d="m190.56399977425718,10.216011992321228 c0,0.9333333239077501 0.509333328189658,1.865333314495632 1.535999984488183,1.865333314495632 c1.025333322978657,0 1.534666651168315,-0.931999990587882 1.534666651168315,-1.865333314495632 c0,-0.9346666572276184 -0.509333328189658,-1.8666666478155003 -1.534666651168315,-1.8666666478155003 c-1.0266666562985252,0 -1.535999984488183,0.931999990587882 -1.535999984488183,1.8666666478155003 zm3.6053332969236522,0 c0,1.2546666539959899 -0.7293333259679133,2.315999976611089 -2.069333312435469,2.315999976611089 c-1.341333319787424,0 -2.0706666457553373,-1.0613333226150987 -2.0706666457553373,-2.315999976611089 c0,-1.255999987315858 0.7293333259679133,-2.317333309930957 2.0706666457553373,-2.317333309930957 c1.3399999864675558,0 2.069333312435469,1.0613333226150987 2.069333312435469,2.317333309930957 " id="path110" stroke-width="0" class=""/>
    <path fill="#7b7979" fill-rule="nonzero" d="m197.4639997045752,8.349345344505764 c-1.137333321847587,0 -1.535999984488183,0.9586666569852463 -1.535999984488183,1.8666666478155003 c0,0.9066666575103859 0.3986666626405962,1.865333314495632 1.535999984488183,1.865333314495632 c1.0173333230594477,0 1.4333333188583306,-0.9586666569852463 1.4333333188583306,-1.865333314495632 c0,-0.9079999908302542 -0.41599999579888297,-1.8666666478155003 -1.4333333188583306,-1.8666666478155003 zm-2.0706666457553373,-2.002666646442058 l0.534666661267154,0 l0,2.5106666413118477 l0.01733333315828679,0 c0.22933333101733294,-0.627999993657929 0.8653333245944713,-0.9586666569852463 1.5186666513298965,-0.9586666569852463 c1.3319999865483463,0 1.9679999801254846,1.0786666557733855 1.9679999801254846,2.317333309930957 c0,1.237333320837703 -0.6359999935771383,2.315999976611089 -1.9679999801254846,2.315999976611089 c-0.7039999928904174,0 -1.3146666533900595,-0.3653333296438908 -1.5613333175656794,-0.9599999903051145 l-0.015999999838418575,0 l0,0.8319999915977659 l-0.49333332835123944,0 l0,-6.057333272161299 " id="path112" stroke-width="0" class=""/>
    <path fill="#7b7979" fill-rule="nonzero" d="m203.8386663068651,9.909345328751613 c-0.025333333077496082,-0.8053333252004016 -0.5253333280280765,-1.559999984245811 -1.3906666526225477,-1.559999984245811 c-0.8746666578335488,0 -1.3586666529457105,0.7626666589646187 -1.4426666520974083,1.559999984245811 l2.833333304719956,0 zm-2.833333304719956,0.45066666211545653 c0.00799999991920929,0.7799999921229055 0.41733332911875115,1.721333315949865 1.4426666520974083,1.721333315949865 c0.7799999921229055,0 1.205333321160866,-0.4573333287147976 1.3746666527841294,-1.1199999886893004 l0.534666661267154,0 c-0.22933333101733294,0.9933333233018199 -0.8066666585202698,1.5706666508047566 -1.9093333140512834,1.5706666508047566 c-1.391999985942416,0 -1.9773333133645623,-1.069333322534308 -1.9773333133645623,-2.315999976611089 c0,-1.1546666550058737 0.5853333274221462,-2.317333309930957 1.9773333133645623,-2.317333309930957 c1.409333319100703,0 1.9693333134453528,1.2306666542383622 1.9253333138897017,2.4613333084767244 l-3.36799996598711,0 " id="path114" stroke-width="0" class=""/>
    <path fill="#7b7979" fill-rule="nonzero" d="m205.53066628977786,12.404011970225042 l0.5348933279315317,0 l0,-6.0572932721617025 l-0.5348933279315317,0 l0,6.0572932721617025 z" id="path116" stroke-width="0" class=""/>
    <path fill="#7b7979" fill-rule="nonzero" d="m207.52533293630074,8.026678681097621 l0.534666661267154,0 l0,4.377333289127348 l-0.534666661267154,0 l0,-4.377333289127348 zm0,-1.6799999830339503 l0.534666661267154,0 l0,0.8573333246752619 l-0.534666661267154,0 l0,-0.8573333246752619 " id="path118" stroke-width="0" class=""/>
    <path fill="#7b7979" fill-rule="nonzero" d="m213.05733288043393,12.404011970225042 l-0.4919999950313712,0 l0,-0.789333325361983 l-0.015999999838418575,0 c-0.2799999971723251,0.5866666607420145 -0.8573333246752619,0.9173333240693317 -1.510666651410687,0.9173333240693317 c-1.1026666555310134,0 -1.535999984488183,-0.6439999934963476 -1.535999984488183,-1.6626666498756637 l0,-2.8426666379590335 l0.534666661267154,0 l0,2.8506666378782426 c0.025333333077496082,0.789333325361983 0.3226666634081079,1.2039999878409977 1.1719999881641605,1.2039999878409977 c0.9146666574295952,0 1.3146666533900595,-0.8639999912746031 1.3146666533900595,-1.7546666489465703 l0,-2.29999997677267 l0.5333333279472858,0 l0,4.377333289127348 " id="path120" stroke-width="0" class=""/>
    <path fill="#7b7979" fill-rule="nonzero" d="m214.49333286593196,8.026678681097621 l0.4919999950313712,0 l0,0.7386666592069909 l0.025333333077496082,0 c0.2799999971723251,-0.5266666613479448 0.7386666592069909,-0.8666666579143395 1.4333333188583306,-0.8666666579143395 c0.5773333275029369,0 1.0959999889316725,0.2799999971723251 1.2573333206357262,0.8573333246752619 c0.26266666401403826,-0.5773333275029369 0.8133333251196109,-0.8573333246752619 1.3906666526225477,-0.8573333246752619 c0.9586666569852463,0 1.4506666520166176,0.5013333282704487 1.4506666520166176,1.5373333178080513 l0,2.967999970026646 l-0.534666661267154,0 l0,-2.9439999702690174 c0,-0.7213333260487041 -0.2719999972531158,-1.1106666554502227 -1.0359999895376026,-1.1106666554502227 c-0.9239999906686727,0 -1.187999988002579,0.7626666589646187 -1.187999988002579,1.5773333174040978 l0,2.4773333083151425 l-0.5333333279472858,0 l0,-2.967999970026646 c0.00799999991920929,-0.5959999939810919 -0.2373333309365422,-1.086666655692595 -0.9173333240693317,-1.086666655692595 c-0.9239999906686727,0 -1.2959999869119045,0.695999992971208 -1.305333320150982,1.6106666504008031 l0,2.443999975318437 l-0.534666661267154,0 l0,-4.377333289127348 " id="path122" stroke-width="0" class=""/>
    <path fill="#7b7979" fill-rule="nonzero" d="m196.2253330504176,17.797345249091904 c0.9333333239077501,-0.033333332996705364 1.510666651410687,-0.050666666154992164 1.671999983114741,-1.1453333217667963 l0.43333332895716975,0 l0,5.938666606693028 l-0.534666661267154,0 l0,-4.411999955443923 l-1.5706666508047566,0 l0,-0.3813333294823094 " id="path124" stroke-width="0" class=""/>
    <path fill="#7b7979" fill-rule="nonzero" d="m201.3706663317891,19.65601189698822 c0,1.0333333228978663 0.179999998182209,2.6119999736218324 1.535999984488183,2.6119999736218324 c1.3573333196258424,0 1.535999984488183,-1.578666650723966 1.535999984488183,-2.6119999736218324 c0,-1.0279999896183933 -0.17866666486234076,-2.6053333070224913 -1.535999984488183,-2.6053333070224913 c-1.3559999863059742,0 -1.535999984488183,1.5773333174040978 -1.535999984488183,2.6053333070224913 zm3.6066666302435206,0 c0,1.3906666526225477 -0.3399999965663947,3.0626666357372887 -2.0706666457553373,3.0626666357372887 c-1.7319999825088108,0 -2.0719999790752053,-1.671999983114741 -2.0719999790752053,-3.0546666358180796 c0,-1.3906666526225477 0.3399999965663947,-3.0626666357372887 2.0719999790752053,-3.0626666357372887 c1.7306666491889426,0 2.0706666457553373,1.671999983114741 2.0706666457553373,3.0546666358180796 " id="path126" stroke-width="0" class=""/>
    <path fill="#7b7979" fill-rule="nonzero" d="m209.90933291222512,22.59067853401814 l-3.910666627173473,0 c0.04133333291591466,-1.763999982185648 1.8479999813373453,-2.1986666444626857 2.858666637797452,-3.206666634283056 c0.3213333300882397,-0.3306666633273172 0.49066666171150297,-0.6453333268162158 0.49066666171150297,-1.1199999886893004 c0,-0.7719999922036962 -0.6106666604996422,-1.2133333210800752 -1.3319999865483463,-1.2133333210800752 c-0.9746666568236649,0 -1.3559999863059742,0.7813333254427738 -1.3399999864675558,1.6546666499564544 l-0.534666661267154,0 c-0.025333333077496082,-1.2213333209992845 0.6119999938195104,-2.1039999787520425 1.9013333141320738,-2.1039999787520425 c1.0333333228978663,0 1.8413333147380044,0.5679999942638594 1.8413333147380044,1.671999983114741 c0,0.9919999899819517 -0.7213333260487041,1.6119999837206713 -1.4946666515722686,2.111999978671252 c-0.5759999941830687,0.3906666627213869 -1.6359999834782992,0.9159999907494635 -1.7813333153439346,1.7133333160306556 l3.3013332999936993,0 l0,0.4919999950313712 " id="path128" stroke-width="0" class=""/>
    <path fill="#7b7979" fill-rule="nonzero" d="m193.62133307671496,78.62534463479977 l0,-7.80399992118866 l1.3666666528649198,0 l0,0.44799999547572006 l-0.8319999915977659,0 l0,6.905333263597483 l0.8319999915977659,0 l0,0.45066666211545653 l-1.3666666528649198,0 " id="path130" stroke-width="0" class=""/>
    <path fill="#7b7979" fill-rule="nonzero" d="m199.6639996823577,77.00534465115987 l-3.9119999604933415,0 c0.04266666623578287,-1.7653333155055162 1.850666647977082,-2.1973333111428177 2.85999997111732,-3.207999967602924 c0.3226666634081079,-0.3306666633273172 0.4919999950313712,-0.6426666601764794 0.4919999950313712,-1.1199999886893004 c0,-0.770666658883828 -0.6106666604996422,-1.2133333210800752 -1.3319999865483463,-1.2133333210800752 c-0.9759999901435331,0 -1.3573333196258424,0.7813333254427738 -1.3399999864675558,1.6559999832763226 l-0.534666661267154,0 c-0.025333333077496082,-1.2213333209992845 0.6106666604996422,-2.1039999787520425 1.8999999808122057,-2.1039999787520425 c1.0346666562177345,0 1.8413333147380044,0.5679999942638594 1.8413333147380044,1.671999983114741 c0,0.9919999899819517 -0.7213333260487041,1.6119999837206713 -1.4933333182524002,2.111999978671252 c-0.5773333275029369,0.3906666627213869 -1.6373333167981674,0.9173333240693317 -1.7826666486638028,1.7133333160306556 l3.3013332999936993,0 l0,0.4919999950313712 " id="path132" stroke-width="0" class=""/>
    <path fill="#7b7979" fill-rule="nonzero" d="m201.43333299782284,75.3080113349676 c0.023999999757627864,0.8226666583586884 0.6426666601764794,1.3746666527841294 1.4573333186159585,1.3746666527841294 c0.9173333240693317,0 1.4853333183331912,-0.7546666590454094 1.4853333183331912,-1.6199999836398808 c0,-0.8746666578335488 -0.6359999935771383,-1.5439999844073924 -1.5186666513298965,-1.5439999844073924 c-0.5253333280280765,0 -1.0333333228978663,0.2559999974146972 -1.3226666533092688,0.7039999928904174 l-0.45866666203466583,0 l0.5773333275029369,-3.0786666355757073 l2.969333303346514,0 l0,0.4919999950313712 l-2.5959999737834134,0 l-0.3826666628021776,1.9666666468056164 l0.018666666478155007,0.01733333315828679 c0.29599999701074364,-0.34799999648560404 0.7959999919613241,-0.5519999944254408 1.2546666539959899,-0.5519999944254408 c1.2213333209992845,0 1.9933333132029807,0.8573333246752619 1.9933333132029807,2.0546666459169187 c0,1.161333321605215 -0.9239999906686727,2.0106666463612677 -2.06133331251626,2.0106666463612677 c-1.1039999888508816,0 -1.9279999805294383,-0.6973333262910762 -1.9519999802870662,-1.8253333148995856 l0.5359999945870222,0 " id="path134" stroke-width="0" class=""/>
    <path fill="#7b7979" fill-rule="nonzero" d="m209.46933291666858,72.99334469167638 c0,-0.8413333248368434 -0.45066666211545653,-1.5293333178888422 -1.483999985013323,-1.5293333178888422 c-0.8493333247560527,0 -1.4266666522589895,0.7053333262102855 -1.4266666522589895,1.5293333178888422 c0,0.8639999912746031 0.5266666613479448,1.566666650845152 1.4346666521781988,1.566666650845152 c0.9333333239077501,0 1.4759999850941137,-0.6946666596513398 1.4759999850941137,-1.566666650845152 zm-2.765333305406677,2.585333307224468 c0.09333333239077503,0.6533333267354252 0.5519999944254408,1.1039999888508816 1.2386666541575713,1.1039999888508816 c1.3826666527033384,0 1.6359999834782992,-1.5773333174040978 1.6359999834782992,-2.6559999731774835 l-0.015999999838418575,0 c-0.2813333304921933,0.5853333274221462 -0.9079999908302542,0.9839999900627423 -1.5773333174040978,0.9839999900627423 c-1.187999988002579,0 -1.9613333135261437,-0.8226666583586884 -1.9613333135261437,-1.9839999799639034 c0,-1.1533333216860056 0.8413333248368434,-2.0106666463612677 2.0106666463612677,-2.0106666463612677 c1.4426666520974083,0 2.0786666456745464,0.838666658197107 2.0786666456745464,3.155999968128064 c0,0.7039999928904174 -0.17733333154247255,2.961333303427305 -2.119999978590461,2.961333303427305 c-1.0453333227766801,0 -1.6973333161922373,-0.5186666614287355 -1.8239999815797174,-1.5546666509663383 l0.534666661267154,0 " id="path136" stroke-width="0" class=""/>
    <path fill="#7b7979" fill-rule="nonzero" d="m212.27866622163094,70.82134471361104 l0,7.80399992118866 l-1.3639999862251835,0 l0,-0.45066666211545653 l0.8306666582778978,0 l0,-6.905333263597483 l-0.8306666582778978,0 l0,-0.44799999547572006 l1.3639999862251835,0 " id="path138" stroke-width="0" class=""/>
    <path fill="#003399" fill-rule="nonzero" d="m250.51599916881156,46.529344958932086 c0,-7.5053332575381795 5.786666608228051,-12.994666535435618 13.066666534708503,-12.994666535435618 c4.5919999536261304,0 7.877333253781411,1.6426666500776403 10.154666564116322,5.189333280927092 l-3.994666626325171,2.8386666379994288 c-1.1946666546019205,-1.9426666470479887 -3.2479999671989708,-3.3253332997513274 -6.159999937791151,-3.3253332997513274 c-4.5919999536261304,0 -7.69199992231973,3.5493332974891874 -7.69199992231973,8.291999916260426 c0,4.742666618771239 3.099999968693599,8.361333248893574 7.69199992231973,8.361333248893574 c3.2853333001552807,0 5.114666615014471,-1.566666650845152 6.531999934034383,-3.730666628991264 l4.070666625557659,2.798666638403382 c-2.2026666444222904,3.434666631980521 -5.7119999423154315,5.598666610126633 -10.602666559592041,5.598666610126633 c-7.279999926480452,0 -13.066666534708503,-5.522666610894145 -13.066666534708503,-13.027999868432325 " id="path140" stroke-width="2" class="" opacity="0.75" fill-opacity="0.75" stroke-opacity="0.75" stroke="#6699FF"/>
    <path fill="#003399" stroke="#6699FF" stroke-width="0.6666666599341073" stroke-miterlimit="10" d="m250.51599916881156,46.529344958932086 c0,-7.5053332575381795 5.786666608228051,-12.994666535435618 13.066666534708503,-12.994666535435618 c4.5919999536261304,0 7.877333253781411,1.6426666500776403 10.154666564116322,5.189333280927092 l-3.994666626325171,2.8386666379994288 c-1.1946666546019205,-1.9426666470479887 -3.2479999671989708,-3.3253332997513274 -6.159999937791151,-3.3253332997513274 c-4.5919999536261304,0 -7.69199992231973,3.5493332974891874 -7.69199992231973,8.291999916260426 c0,4.742666618771239 3.099999968693599,8.361333248893574 7.69199992231973,8.361333248893574 c3.2853333001552807,0 5.114666615014471,-1.566666650845152 6.531999934034383,-3.730666628991264 l4.070666625557659,2.798666638403382 c-2.2026666444222904,3.434666631980521 -5.7119999423154315,5.598666610126633 -10.602666559592041,5.598666610126633 c-7.279999926480452,0 -13.066666534708503,-5.522666610894145 -13.066666534708503,-13.027999868432325 z" id="path142" class="" opacity="0.75" fill-opacity="0.75" stroke-opacity="0.75"/>
    <path fill="#003399" fill-rule="nonzero" d="m284.7239988233504,48.893344935058394 c2.013333313001004,0 3.2973333000340945,-0.7853333254023784 3.2973333000340945,-2.9733333033061187 c0,-2.218666644260709 -1.3426666531072922,-2.947999970228622 -3.2973333000340945,-2.947999970228622 l-3.1506666348485908,0 l0,5.92133327353474 l3.1506666348485908,0 zm-7.234666593604932,-9.511999903939843 l7.350666592433467,0 c4.055999959039109,0 7.382666592110303,1.8959999808526011 7.382666592110303,6.538666600633724 c0,3.0053333029829554 -1.5759999840842296,4.901333283835556 -3.8813332941363727,5.803999941386338 l4.522666620992984,7.498666590938839 l-4.667999952858619,0 l-4.026666626002008,-6.886666597119328 l-2.5959999737834134,0 l0,6.886666597119328 l-4.083999958756341,0 l0,-19.8413331329589 " id="path144" stroke-width="2" class="" opacity="0.75" fill-opacity="0.75" stroke-opacity="0.75" stroke="#6699FF"/>
    <path fill="#003399" stroke="#6699FF" stroke-width="0.6666666599341073" stroke-miterlimit="10" d="m284.7239988233504,48.893344935058394 c2.013333313001004,0 3.2973333000340945,-0.7853333254023784 3.2973333000340945,-2.9733333033061187 c0,-2.218666644260709 -1.3426666531072922,-2.947999970228622 -3.2973333000340945,-2.947999970228622 l-3.1506666348485908,0 l0,5.92133327353474 l3.1506666348485908,0 zm-7.234666593604932,-9.511999903939843 l7.350666592433467,0 c4.055999959039109,0 7.382666592110303,1.8959999808526011 7.382666592110303,6.538666600633724 c0,3.0053333029829554 -1.5759999840842296,4.901333283835556 -3.8813332941363727,5.803999941386338 l4.522666620992984,7.498666590938839 l-4.667999952858619,0 l-4.026666626002008,-6.886666597119328 l-2.5959999737834134,0 l0,6.886666597119328 l-4.083999958756341,0 l0,-19.8413331329589 z" id="path146" class="" opacity="0.75" fill-opacity="0.75" stroke-opacity="0.75"/>
    <path fill="#7b7979" fill-rule="nonzero" d="m255.11066578907742,9.400012000561901 c-0.1453333318656354,-0.651999993415557 -0.5439999945062316,-1.050666656056153 -1.2386666541575713,-1.050666656056153 c-1.0279999896183933,0 -1.535999984488183,0.931999990587882 -1.535999984488183,1.8666666478155003 c0,0.9333333239077501 0.5079999948697898,1.865333314495632 1.535999984488183,1.865333314495632 c0.6613333266546344,0 1.2039999878409977,-0.5173333281088672 1.2719999871542766,-1.2466666540767806 l0.534666661267154,0 c-0.14399999854576717,1.0533333226958896 -0.8319999915977659,1.6973333161922373 -1.8066666484214309,1.6973333161922373 c-1.3399999864675558,0 -2.0706666457553373,-1.0613333226150987 -2.0706666457553373,-2.315999976611089 c0,-1.255999987315858 0.7306666592877816,-2.317333309930957 2.0706666457553373,-2.317333309930957 c0.9333333239077501,0 1.6533333166365862,0.5013333282704487 1.7733333154247255,1.5013333181716095 l-0.534666661267154,0 " id="path148" stroke-width="0" class=""/>
    <path fill="#7b7979" fill-rule="nonzero" d="m256.84266577158627,6.34667869806367 l0.5359999945870222,0 l0,2.43466664207936 l0.015999999838418575,0 c0.19599999802062754,-0.5253333280280765 0.7799999921229055,-0.8826666577527581 1.3999999858616252,-0.8826666577527581 c1.2306666542383622,0 1.6026666504815938,0.6453333268162158 1.6026666504815938,1.689333316273028 l0,2.8159999715616695 l-0.5333333279472858,0 l0,-2.7319999724099713 c0,-0.7546666590454094 -0.24666666417561972,-1.3226666533092688 -1.1119999887700909,-1.3226666533092688 c-0.8479999914361845,0 -1.3573333196258424,0.6453333268162158 -1.3733333194642612,1.5013333181716095 l0,2.5533333075476308 l-0.5359999945870222,0 l0,-6.057333272161299 " id="path150" stroke-width="0" class=""/>
    <path fill="#7b7979" fill-rule="nonzero" d="m261.8346657211729,8.026678681097621 l0.49333332835123944,0 l0,1.0266666562985252 l0.015999999838418575,0 c0.2706666639332475,-0.7039999928904174 0.8653333245944713,-1.1199999886893004 1.6546666499564544,-1.086666655692595 l0,0.534666661267154 c-0.9666666569044555,-0.050666666154992164 -1.6293333168789583,0.6626666599745026 -1.6293333168789583,1.5693333174848885 l0,2.3333333097693756 l-0.534666661267154,0 l0,-4.377333289127348 " id="path152" stroke-width="0" class=""/>
    <path fill="#7b7979" fill-rule="nonzero" d="m265.0959990215705,10.216011992321228 c0,0.9333333239077501 0.509333328189658,1.865333314495632 1.534666651168315,1.865333314495632 c1.0279999896183933,0 1.535999984488183,-0.931999990587882 1.535999984488183,-1.865333314495632 c0,-0.9346666572276184 -0.5079999948697898,-1.8666666478155003 -1.535999984488183,-1.8666666478155003 c-1.025333322978657,0 -1.534666651168315,0.931999990587882 -1.534666651168315,1.8666666478155003 zm3.6053332969236522,0 c0,1.2546666539959899 -0.7293333259679133,2.315999976611089 -2.0706666457553373,2.315999976611089 c-1.3399999864675558,0 -2.069333312435469,-1.0613333226150987 -2.069333312435469,-2.315999976611089 c0,-1.255999987315858 0.7293333259679133,-2.317333309930957 2.069333312435469,-2.317333309930957 c1.341333319787424,0 2.0706666457553373,1.0613333226150987 2.0706666457553373,2.317333309930957 " id="path154" stroke-width="0" class=""/>
    <path fill="#7b7979" fill-rule="nonzero" d="m269.926665639453,8.026678681097621 l0.4919999950313712,0 l0,0.7386666592069909 l0.025333333077496082,0 c0.2786666638524568,-0.5266666613479448 0.7373333258871226,-0.8666666579143395 1.4346666521781988,-0.8666666579143395 c0.5759999941830687,0 1.093333322291936,0.2799999971723251 1.2546666539959899,0.8573333246752619 c0.26266666401403826,-0.5773333275029369 0.8133333251196109,-0.8573333246752619 1.3906666526225477,-0.8573333246752619 c0.9599999903051145,0 1.4519999853364858,0.5013333282704487 1.4519999853364858,1.5373333178080513 l0,2.967999970026646 l-0.534666661267154,0 l0,-2.9439999702690174 c0,-0.7213333260487041 -0.2719999972531158,-1.1106666554502227 -1.0359999895376026,-1.1106666554502227 c-0.9239999906686727,0 -1.186666654682711,0.7626666589646187 -1.186666654682711,1.5773333174040978 l0,2.4773333083151425 l-0.534666661267154,0 l0,-2.967999970026646 c0.00799999991920929,-0.5959999939810919 -0.23866666425641042,-1.086666655692595 -0.9159999907494635,-1.086666655692595 c-0.925333323988541,0 -1.2986666535516411,0.695999992971208 -1.3079999867907186,1.6106666504008031 l0,2.443999975318437 l-0.5333333279472858,0 l0,-4.377333289127348 " id="path156" stroke-width="0" class=""/>
    <path fill="#7b7979" fill-rule="nonzero" d="m277.42933223035146,8.026678681097621 l0.534666661267154,0 l0,4.377333289127348 l-0.534666661267154,0 l0,-4.377333289127348 zm0,-1.6799999830339503 l0.534666661267154,0 l0,0.8573333246752619 l-0.534666661267154,0 l0,-0.8573333246752619 " id="path158" stroke-width="0" class=""/>
    <path fill="#7b7979" fill-rule="nonzero" d="m282.9613321744847,12.404011970225042 l-0.49066666171150297,0 l0,-0.789333325361983 l-0.01733333315828679,0 c-0.2799999971723251,0.5866666607420145 -0.8573333246752619,0.9173333240693317 -1.5093333180908188,0.9173333240693317 c-1.1039999888508816,0 -1.5373333178080513,-0.6439999934963476 -1.5373333178080513,-1.6626666498756637 l0,-2.8426666379590335 l0.5359999945870222,0 l0,2.8506666378782426 c0.023999999757627864,0.789333325361983 0.3213333300882397,1.2039999878409977 1.1693333215244242,1.2039999878409977 c0.9173333240693317,0 1.315999986709928,-0.8639999912746031 1.315999986709928,-1.7546666489465703 l0,-2.29999997677267 l0.5333333279472858,0 l0,4.377333289127348 " id="path160" stroke-width="0" class=""/>
    <path fill="#7b7979" fill-rule="nonzero" d="m284.3986654933026,8.026678681097621 l0.4919999950313712,0 l0,0.7386666592069909 l0.025333333077496082,0 c0.2799999971723251,-0.5266666613479448 0.7386666592069909,-0.8666666579143395 1.4346666521781988,-0.8666666579143395 c0.5773333275029369,0 1.093333322291936,0.2799999971723251 1.255999987315858,0.8573333246752619 c0.26266666401403826,-0.5773333275029369 0.8133333251196109,-0.8573333246752619 1.3906666526225477,-0.8573333246752619 c0.9586666569852463,0 1.4506666520166176,0.5013333282704487 1.4506666520166176,1.5373333178080513 l0,2.967999970026646 l-0.534666661267154,0 l0,-2.9439999702690174 c0,-0.7213333260487041 -0.2706666639332475,-1.1106666554502227 -1.0346666562177345,-1.1106666554502227 c-0.925333323988541,0 -1.187999988002579,0.7626666589646187 -1.187999988002579,1.5773333174040978 l0,2.4773333083151425 l-0.5333333279472858,0 l0,-2.967999970026646 c0.00799999991920929,-0.5959999939810919 -0.23866666425641042,-1.086666655692595 -0.9173333240693317,-1.086666655692595 c-0.9239999906686727,0 -1.297333320231773,0.695999992971208 -1.3066666534708504,1.6106666504008031 l0,2.443999975318437 l-0.534666661267154,0 l0,-4.377333289127348 " id="path162" stroke-width="0" class=""/>
    <path fill="#7b7979" fill-rule="nonzero" d="m270.5199989667944,22.59067853401814 l-3.909333293853605,0 c0.04133333291591466,-1.763999982185648 1.8479999813373453,-2.1986666444626857 2.8573333044775837,-3.206666634283056 c0.3226666634081079,-0.3306666633273172 0.4919999950313712,-0.6453333268162158 0.4919999950313712,-1.1199999886893004 c0,-0.7719999922036962 -0.6106666604996422,-1.2133333210800752 -1.3319999865483463,-1.2133333210800752 c-0.9746666568236649,0 -1.3559999863059742,0.7813333254427738 -1.3399999864675558,1.6546666499564544 l-0.534666661267154,0 c-0.025333333077496082,-1.2213333209992845 0.6106666604996422,-2.1039999787520425 1.9013333141320738,-2.1039999787520425 c1.0346666562177345,0 1.8413333147380044,0.5679999942638594 1.8413333147380044,1.671999983114741 c0,0.9919999899819517 -0.7213333260487041,1.6119999837206713 -1.4946666515722686,2.111999978671252 c-0.5759999941830687,0.3906666627213869 -1.6373333167981674,0.9159999907494635 -1.7799999820240664,1.7133333160306556 l3.2986666333539625,0 l0,0.4919999950313712 " id="path164" stroke-width="0" class=""/>
    <path fill="#7b7979" fill-rule="nonzero" d="m274.44399892716655,20.665345220128415 l0,-3.23333330068042 l-0.01733333315828679,0 l-2.239999977378601,3.23333330068042 l2.2573333105368873,0 zm-2.741333305649049,-0.06799999931327895 l2.7493333055682587,-3.9453332934900467 l0.48399999511216185,0 l0,4.013333292803326 l0.8906666576719673,0 l0,0.44799999547572006 l-0.8906666576719673,0 l0,1.4773333184139819 l-0.4919999950313712,0 l0,-1.4773333184139819 l-2.741333305649049,0 l0,-0.515999994788999 " id="path166" stroke-width="0" class=""/>
    <path fill="#7b7979" fill-rule="nonzero" d="m258.12533242529946,75.3080113349676 c0.026666666397364293,0.8226666583586884 0.6453333268162158,1.3746666527841294 1.4599999852556949,1.3746666527841294 c0.9146666574295952,0 1.483999985013323,-0.7546666590454094 1.483999985013323,-1.6199999836398808 c0,-0.8746666578335488 -0.6359999935771383,-1.5439999844073924 -1.5173333180100284,-1.5439999844073924 c-0.5266666613479448,0 -1.0359999895376026,0.2559999974146972 -1.3253333199490052,0.7039999928904174 l-0.4573333287147976,0 l0.5759999941830687,-3.0786666355757073 l2.9706666366663823,0 l0,0.4919999950313712 l-2.5959999737834134,0 l-0.3826666628021776,1.9666666468056164 l0.01733333315828679,0.01733333315828679 c0.2973333303306118,-0.34799999648560404 0.7973333252811924,-0.5519999944254408 1.255999987315858,-0.5519999944254408 c1.2226666543191527,0 1.9933333132029807,0.8573333246752619 1.9933333132029807,2.0546666459169187 c0,1.161333321605215 -0.925333323988541,2.0106666463612677 -2.06133331251626,2.0106666463612677 c-1.1026666555310134,0 -1.92666664720957,-0.6973333262910762 -1.950666646967198,-1.8253333148995856 l0.5333333279472858,0 " id="path168" stroke-width="0" class=""/>
    <path fill="#7b7979" fill-rule="nonzero" d="m263.25333237351265,72.21201136623364 c0.9333333239077501,-0.03466666631657358 1.510666651410687,-0.04933333283512394 1.671999983114741,-1.1466666550866644 l0.43199999563730157,0 l0,5.939999940012895 l-0.534666661267154,0 l0,-4.410666622124054 l-1.5693333174848885,0 l0,-0.3826666628021776 " id="path170" stroke-width="0" class=""/>
    <path fill="#7b7979" fill-rule="nonzero" d="m268.3973323215642,77.00534465115987 l0.7135466594606737,0 l0,-0.8999999909110449 l-0.7135466594606737,0 l0,0.8999999909110449 z" id="path172" stroke-width="0" class=""/>
    <path fill="#7b7979" fill-rule="nonzero" d="m274.09199893072133,72.99334469167638 c0,-0.8413333248368434 -0.44933332879558835,-1.5293333178888422 -1.483999985013323,-1.5293333178888422 c-0.8493333247560527,0 -1.4266666522589895,0.7053333262102855 -1.4266666522589895,1.5293333178888422 c0,0.8639999912746031 0.5266666613479448,1.566666650845152 1.4333333188583306,1.566666650845152 c0.9346666572276184,0 1.4773333184139819,-0.6946666596513398 1.4773333184139819,-1.566666650845152 zm-2.765333305406677,2.585333307224468 c0.09199999907090683,0.6533333267354252 0.5506666611055726,1.1039999888508816 1.237333320837703,1.1039999888508816 c1.3826666527033384,0 1.6386666501180356,-1.5773333174040978 1.6386666501180356,-2.6559999731774835 l-0.01733333315828679,0 c-0.2799999971723251,0.5853333274221462 -0.9079999908302542,0.9839999900627423 -1.5773333174040978,0.9839999900627423 c-1.1893333213224473,0 -1.9599999802062753,-0.8226666583586884 -1.9599999802062753,-1.9839999799639034 c0,-1.1533333216860056 0.8399999915169751,-2.0106666463612677 2.0106666463612677,-2.0106666463612677 c1.4413333187775401,0 2.0773333123546784,0.838666658197107 2.0773333123546784,3.155999968128064 c0,0.7039999928904174 -0.17866666486234076,2.961333303427305 -2.1213333119103295,2.961333303427305 c-1.0426666561369438,0 -1.695999982872369,-0.5186666614287355 -1.8239999815797174,-1.5546666509663383 l0.5359999945870222,0 " id="path174" stroke-width="0" class=""/>
    <path fill="#7b7979" fill-rule="nonzero" d="m279.23599887877293,72.99334469167638 c0,-0.8413333248368434 -0.44933332879558835,-1.5293333178888422 -1.483999985013323,-1.5293333178888422 c-0.8493333247560527,0 -1.4253333189391213,0.7053333262102855 -1.4253333189391213,1.5293333178888422 c0,0.8639999912746031 0.5253333280280765,1.566666650845152 1.4333333188583306,1.566666650845152 c0.9333333239077501,0 1.4759999850941137,-0.6946666596513398 1.4759999850941137,-1.566666650845152 zm-2.765333305406677,2.585333307224468 c0.09199999907090683,0.6533333267354252 0.5506666611055726,1.1039999888508816 1.2386666541575713,1.1039999888508816 c1.3826666527033384,0 1.6373333167981674,-1.5773333174040978 1.6373333167981674,-2.6559999731774835 l-0.015999999838418575,0 c-0.2799999971723251,0.5853333274221462 -0.9093333241501224,0.9839999900627423 -1.578666650723966,0.9839999900627423 c-1.1893333213224473,0 -1.9599999802062753,-0.8226666583586884 -1.9599999802062753,-1.9839999799639034 c0,-1.1533333216860056 0.8399999915169751,-2.0106666463612677 2.0106666463612677,-2.0106666463612677 c1.4413333187775401,0 2.0786666456745464,0.838666658197107 2.0786666456745464,3.155999968128064 c0,0.7039999928904174 -0.17866666486234076,2.961333303427305 -2.1213333119103295,2.961333303427305 c-1.0426666561369438,0 -1.6973333161922373,-0.5186666614287355 -1.8239999815797174,-1.5546666509663383 l0.534666661267154,0 " id="path176" stroke-width="0" class=""/>
    <path fill="#7b7979" fill-rule="nonzero" d="m281.63199885457607,75.15734466982252 c0,0.838666658197107 0.44933332879558835,1.5253333179292374 1.483999985013323,1.5253333179292374 c0.8493333247560527,0 1.4266666522589895,-0.702666659570549 1.4266666522589895,-1.5253333179292374 c0,-0.8679999912342077 -0.5266666613479448,-1.5706666508047566 -1.4333333188583306,-1.5706666508047566 c-0.9346666572276184,0 -1.4773333184139819,0.6946666596513398 -1.4773333184139819,1.5706666508047566 zm2.765333305406677,-2.5893333071840727 c-0.09333333239077503,-0.6533333267354252 -0.5519999944254408,-1.1039999888508816 -1.237333320837703,-1.1039999888508816 c-1.3826666527033384,0 -1.6386666501180356,1.578666650723966 -1.6386666501180356,2.6559999731774835 l0.01733333315828679,0 c0.2799999971723251,-0.5853333274221462 0.9066666575103859,-0.9839999900627423 1.5773333174040978,-0.9839999900627423 c1.187999988002579,0 1.9599999802062753,0.8226666583586884 1.9599999802062753,1.9866666466036398 c0,1.1546666550058737 -0.8399999915169751,2.0106666463612677 -2.0106666463612677,2.0106666463612677 c-1.4426666520974083,0 -2.0773333123546784,-0.8413333248368434 -2.0773333123546784,-3.155999968128064 c0,-0.7053333262102855 0.17733333154247255,-2.961333303427305 2.1213333119103295,-2.961333303427305 c1.0426666561369438,0 1.695999982872369,0.515999994788999 1.8226666482598493,1.551999984326602 l-0.534666661267154,0 " id="path178" stroke-width="0" class=""/>
    <path fill="#7b7979" fill-rule="nonzero" d="m330.3799983622779,10.012011994381453 l-0.01733333315828679,0 c-0.06799999931327895,0.1266666653874804 -0.3053333302498211,0.16933333162326325 -0.44933332879558835,0.19466666470075933 c-0.9079999908302542,0.16133333170405395 -2.0359999794387638,0.15333333178484465 -2.0359999794387638,1.0106666564601066 c0,0.5333333279472858 0.4746666618730844,0.8639999912746031 0.9746666568236649,0.8639999912746031 c0.8146666584394792,0 1.5373333178080513,-0.5173333281088672 1.527999984568974,-1.3733333194642612 l0,-0.695999992971208 zm-2.8506666378782426,-0.6453333268162158 c0.050666666154992164,-1.0266666562985252 0.7719999922036962,-1.4679999851749042 1.7733333154247255,-1.4679999851749042 c0.7719999922036962,0 1.6119999837206713,0.23866666425641042 1.6119999837206713,1.409333319100703 l0,2.323999976530298 c0,0.20266666461996863 0.10133333230998433,0.3226666634081079 0.3133333301690304,0.3226666634081079 c0.05866666607420145,0 0.1266666653874804,-0.015999999838418575 0.16933333162326325,-0.033333332996705364 l0,0.44933332879558835 c-0.11866666546827111,0.023999999757627864 -0.20266666461996863,0.033333332996705364 -0.3466666631657358,0.033333332996705364 c-0.5439999945062316,0 -0.627999993657929,-0.3053333302498211 -0.627999993657929,-0.7626666589646187 l-0.01733333315828679,0 c-0.37333332956310006,0.5679999942638594 -0.7546666590454094,0.8906666576719673 -1.5946666505623848,0.8906666576719673 c-0.8066666585202698,0 -1.4693333184947723,-0.39999999596046437 -1.4693333184947723,-1.2813333203933541 c0,-1.2306666542383622 1.1973333212416568,-1.2719999871542766 2.350666642927662,-1.409333319100703 c0.44133332887637905,-0.050666666154992164 0.6879999930519988,-0.1093333322291936 0.6879999930519988,-0.5933333273413555 c0,-0.7213333260487041 -0.5173333281088672,-0.8986666575911767 -1.1466666550866644,-0.8986666575911767 c-0.6613333266546344,0 -1.1533333216860056,0.3053333302498211 -1.1706666548442923,1.0173333230594477 l-0.5333333279472858,0 " id="path180" stroke-width="0" class=""/>
    <path fill="#7b7979" fill-rule="nonzero" d="m335.0306649819782,9.308012001491022 c-0.025333333077496082,-0.6613333266546344 -0.5333333279472858,-0.9586666569852463 -1.143999988446928,-0.9586666569852463 c-0.47599999519295266,0 -1.0359999895376026,0.18666666478155003 -1.0359999895376026,0.7546666590454094 c0,0.4746666618730844 0.5426666611863634,0.6453333268162158 0.9079999908302542,0.7373333258871226 l0.7119999928096266,0.16133333170405395 c0.6106666604996422,0.09466666571064325 1.2479999873966487,0.44933332879558835 1.2479999873966487,1.2146666543999434 c0,0.9493333237461687 -0.9413333238269594,1.3146666533900595 -1.7573333155863067,1.3146666533900595 c-1.0173333230594477,0 -1.7133333160306556,-0.47599999519295266 -1.7973333151823534,-1.5439999844073924 l0.5333333279472858,0 c0.04266666623578287,0.7213333260487041 0.5786666608228052,1.093333322291936 1.2906666536324316,1.093333322291936 c0.49999999495058045,0 1.1959999879217886,-0.21999999777825544 1.1959999879217886,-0.8306666582778978 c0,-0.509333328189658 -0.4746666618730844,-0.6786666598129212 -0.9599999903051145,-0.7986666586010606 l-0.6853333264122623,-0.15199999846497647 c-0.6973333262910762,-0.18666666478155003 -1.2226666543191527,-0.42399999571809227 -1.2226666543191527,-1.1706666548442923 c0,-0.8906666576719673 0.8733333245136805,-1.2306666542383622 1.6453333167173767,-1.2306666542383622 c0.8733333245136805,0 1.5706666508047566,0.45866666203466583 1.603999983801462,1.409333319100703 l-0.534666661267154,0 " id="path182" stroke-width="0" class=""/>
    <path fill="#7b7979" fill-rule="nonzero" d="m337.7666649543478,8.026678681097621 l0.8906666576719673,0 l0,0.44933332879558835 l-0.8906666576719673,0 l0,2.9533333035080953 c0,0.34799999648560404 0.050666666154992164,0.5506666611055726 0.43199999563730157,0.5759999941830687 c0.15199999846497647,0 0.30399999692995294,-0.00799999991920929 0.45866666203466583,-0.025333333077496082 l0,0.45866666203466583 c-0.16133333170405395,0 -0.3146666634888986,0.015999999838418575 -0.47599999519295266,0.015999999838418575 c-0.7133333261294947,0 -0.9586666569852463,-0.23599999761667398 -0.9506666570660369,-0.9839999900627423 l0,-2.99466663642401 l-0.7626666589646187,0 l0,-0.44933332879558835 l0.7626666589646187,0 l0,-1.3146666533900595 l0.5359999945870222,0 l0,1.3146666533900595 " id="path184" stroke-width="0" class=""/>
    <path fill="#7b7979" fill-rule="nonzero" d="m342.65466490498466,10.012011994381453 l-0.01733333315828679,0 c-0.06799999931327895,0.1266666653874804 -0.3053333302498211,0.16933333162326325 -0.44933332879558835,0.19466666470075933 c-0.9079999908302542,0.16133333170405395 -2.0359999794387638,0.15333333178484465 -2.0359999794387638,1.0106666564601066 c0,0.5333333279472858 0.4746666618730844,0.8639999912746031 0.9746666568236649,0.8639999912746031 c0.8159999917593473,0 1.5373333178080513,-0.5173333281088672 1.527999984568974,-1.3733333194642612 l0,-0.695999992971208 zm-2.8506666378782426,-0.6453333268162158 c0.050666666154992164,-1.0266666562985252 0.7719999922036962,-1.4679999851749042 1.7733333154247255,-1.4679999851749042 c0.7719999922036962,0 1.6119999837206713,0.23866666425641042 1.6119999837206713,1.409333319100703 l0,2.323999976530298 c0,0.20266666461996863 0.10133333230998433,0.3226666634081079 0.3133333301690304,0.3226666634081079 c0.05866666607420145,0 0.1266666653874804,-0.015999999838418575 0.16933333162326325,-0.033333332996705364 l0,0.44933332879558835 c-0.1173333321484029,0.023999999757627864 -0.20266666461996863,0.033333332996705364 -0.3466666631657358,0.033333332996705364 c-0.5439999945062316,0 -0.627999993657929,-0.3053333302498211 -0.627999993657929,-0.7626666589646187 l-0.01733333315828679,0 c-0.37333332956310006,0.5679999942638594 -0.7546666590454094,0.8906666576719673 -1.5946666505623848,0.8906666576719673 c-0.8066666585202698,0 -1.4679999851749042,-0.39999999596046437 -1.4679999851749042,-1.2813333203933541 c0,-1.2306666542383622 1.1959999879217886,-1.2719999871542766 2.349333309607794,-1.409333319100703 c0.44133332887637905,-0.050666666154992164 0.6879999930519988,-0.1093333322291936 0.6879999930519988,-0.5933333273413555 c0,-0.7213333260487041 -0.5173333281088672,-0.8986666575911767 -1.1466666550866644,-0.8986666575911767 c-0.6613333266546344,0 -1.1533333216860056,0.3053333302498211 -1.1706666548442923,1.0173333230594477 l-0.5333333279472858,0 " id="path186" stroke-width="0" class=""/>
    <path fill="#7b7979" fill-rule="nonzero" d="m345.5319982092602,8.026678681097621 l0.8919999909918356,0 l0,0.44933332879558835 l-0.8919999909918356,0 l0,2.9533333035080953 c0,0.34799999648560404 0.05199999947486038,0.5506666611055726 0.43333332895716975,0.5759999941830687 c0.15199999846497647,0 0.3053333302498211,-0.00799999991920929 0.45866666203466583,-0.025333333077496082 l0,0.45866666203466583 c-0.16133333170405395,0 -0.3133333301690304,0.015999999838418575 -0.47599999519295266,0.015999999838418575 c-0.7133333261294947,0 -0.957333323665378,-0.23599999761667398 -0.9493333237461687,-0.9839999900627423 l0,-2.99466663642401 l-0.763999992284487,0 l0,-0.44933332879558835 l0.763999992284487,0 l0,-1.3146666533900595 l0.5333333279472858,0 l0,1.3146666533900595 " id="path188" stroke-width="0" class=""/>
    <path fill="#7b7979" fill-rule="nonzero" d="m347.62933152141295,8.026678681097621 l0.5359999945870222,0 l0,4.377333289127348 l-0.5359999945870222,0 l0,-4.377333289127348 zm0,-1.6799999830339503 l0.5359999945870222,0 l0,0.8573333246752619 l-0.5359999945870222,0 l0,-0.8573333246752619 " id="path190" stroke-width="0" class=""/>
    <path fill="#7b7979" fill-rule="nonzero" d="m349.6079981680974,8.026678681097621 l0.534666661267154,0 l0,0.7546666590454094 l0.01733333315828679,0 c0.19466666470075933,-0.5253333280280765 0.7799999921229055,-0.8826666577527581 1.398666652541757,-0.8826666577527581 c1.2306666542383622,0 1.603999983801462,0.6453333268162158 1.603999983801462,1.689333316273028 l0,2.8159999715616695 l-0.534666661267154,0 l0,-2.7319999724099713 c0,-0.7546666590454094 -0.24533333085575149,-1.3226666533092688 -1.1119999887700909,-1.3226666533092688 c-0.8479999914361845,0 -1.3559999863059742,0.6453333268162158 -1.3733333194642612,1.5013333181716095 l0,2.5533333075476308 l-0.534666661267154,0 l0,-4.377333289127348 " id="path192" stroke-width="0" class=""/>
    <path fill="#7b7979" fill-rule="nonzero" d="m357.746664752573,9.909345328751613 c-0.023999999757627864,-0.8053333252004016 -0.5253333280280765,-1.559999984245811 -1.3906666526225477,-1.559999984245811 c-0.8733333245136805,0 -1.3573333196258424,0.7626666589646187 -1.4426666520974083,1.559999984245811 l2.833333304719956,0 zm-2.833333304719956,0.45066666211545653 c0.009333333239077504,0.7799999921229055 0.41599999579888297,1.721333315949865 1.4426666520974083,1.721333315949865 c0.7799999921229055,0 1.2039999878409977,-0.4573333287147976 1.3733333194642612,-1.1199999886893004 l0.5359999945870222,0 c-0.22933333101733294,0.9933333233018199 -0.8066666585202698,1.5706666508047566 -1.9093333140512834,1.5706666508047566 c-1.391999985942416,0 -1.9759999800446941,-1.069333322534308 -1.9759999800446941,-2.315999976611089 c0,-1.1546666550058737 0.583999994102278,-2.317333309930957 1.9759999800446941,-2.317333309930957 c1.4079999857808347,0 1.9679999801254846,1.2306666542383622 1.9253333138897017,2.4613333084767244 l-3.36799996598711,0 " id="path194" stroke-width="0" class=""/>
    <path fill="#7b7979" fill-rule="nonzero" d="m341.47333158358146,18.085345246183465 c0,-0.6786666598129212 -0.5506666611055726,-1.0346666562177345 -1.2639999872350676,-1.0346666562177345 c-0.6533333267354252,0 -1.2719999871542766,0.3559999964048133 -1.2719999871542766,1.0346666562177345 c0,0.7986666586010606 0.6439999934963476,1.1199999886893004 1.2719999871542766,1.1026666555310134 c0.6533333267354252,0.01733333315828679 1.2639999872350676,-0.3386666632465265 1.2639999872350676,-1.1026666555310134 zm0.24666666417561972,2.8426666379590335 c0,-0.8573333246752619 -0.7133333261294947,-1.3066666534708504 -1.510666651410687,-1.2893333203125634 c-0.8146666584394792,-0.01733333315828679 -1.5093333180908188,0.41599999579888297 -1.5093333180908188,1.2893333203125634 c0,0.8906666576719673 0.6786666598129212,1.3399999864675558 1.5093333180908188,1.3399999864675558 c0.8319999915977659,0 1.510666651410687,-0.43333332895716975 1.510666651410687,-1.3399999864675558 zm-0.6786666598129212,-1.527999984568974 l0,-0.00799999991920929 l0,0.01733333315828679 c0.7626666589646187,0.15199999846497647 1.2133333210800752,0.719999992728836 1.2133333210800752,1.5186666513298965 c0,1.1959999879217886 -0.9333333239077501,1.790666648583012 -2.0453333126778412,1.790666648583012 c-1.1106666554502227,0 -2.043999979357973,-0.5946666606612236 -2.043999979357973,-1.790666648583012 c0.015999999838418575,-0.7719999922036962 0.4746666618730844,-1.3826666527033384 1.2039999878409977,-1.5186666513298965 l0,-0.01733333315828679 c-0.6186666604188517,-0.18666666478155003 -0.9666666569044555,-0.6533333267354252 -0.9666666569044555,-1.3066666534708504 c0,-1.018666656379316 0.925333323988541,-1.483999985013323 1.7986666485022216,-1.483999985013323 c0.8813333244328899,0 1.8066666484214309,0.4653333286340069 1.8066666484214309,1.483999985013323 c0,0.6439999934963476 -0.3653333296438908,1.1293333219283779 -0.9666666569044555,1.3146666533900595 " id="path196" stroke-width="0" class=""/>
    <path fill="#7b7979" fill-rule="nonzero" d="m343.83466489306807,20.893345217825924 c0.026666666397364293,0.8239999916785565 0.6453333268162158,1.3746666527841294 1.4599999852556949,1.3746666527841294 c0.9159999907494635,0 1.483999985013323,-0.7546666590454094 1.483999985013323,-1.6199999836398808 c0,-0.8733333245136805 -0.6359999935771383,-1.5439999844073924 -1.5173333180100284,-1.5439999844073924 c-0.5266666613479448,0 -1.0359999895376026,0.254666664094829 -1.323999986629137,0.7039999928904174 l-0.45866666203466583,0 l0.5773333275029369,-3.0799999688955757 l2.969333303346514,0 l0,0.49333332835123944 l-2.5959999737834134,0 l-0.3813333294823094,1.9666666468056164 l0.015999999838418575,0.01733333315828679 c0.2973333303306118,-0.34799999648560404 0.7973333252811924,-0.5506666611055726 1.255999987315858,-0.5506666611055726 c1.2226666543191527,0 1.9933333132029807,0.8559999913553937 1.9933333132029807,2.0533333125970503 c0,1.161333321605215 -0.9239999906686727,2.0106666463612677 -2.06133331251626,2.0106666463612677 c-1.1026666555310134,0 -1.9253333138897017,-0.6973333262910762 -1.950666646967198,-1.8253333148995856 l0.5333333279472858,0 " id="path198" stroke-width="0" class=""/>
    <path fill="#7b7979" fill-rule="nonzero" d="m333.45333166457414,78.62534463479977 l0,-7.80399992118866 l1.3666666528649198,0 l0,0.44799999547572006 l-0.8306666582778978,0 l0,6.905333263597483 l0.8306666582778978,0 l0,0.45066666211545653 l-1.3666666528649198,0 " id="path200" stroke-width="0" class=""/>
    <path fill="#7b7979" fill-rule="nonzero" d="m339.49599827021683,77.00534465115987 l-3.910666627173473,0 c0.04133333291591466,-1.7653333155055162 1.8493333146572137,-2.1973333111428177 2.858666637797452,-3.207999967602924 c0.3226666634081079,-0.3306666633273172 0.4919999950313712,-0.6426666601764794 0.4919999950313712,-1.1199999886893004 c0,-0.770666658883828 -0.6106666604996422,-1.2133333210800752 -1.3319999865483463,-1.2133333210800752 c-0.9759999901435331,0 -1.3573333196258424,0.7813333254427738 -1.3399999864675558,1.6559999832763226 l-0.5359999945870222,0 c-0.023999999757627864,-1.2213333209992845 0.6106666604996422,-2.1039999787520425 1.9013333141320738,-2.1039999787520425 c1.0359999895376026,0 1.8413333147380044,0.5679999942638594 1.8413333147380044,1.671999983114741 c0,0.9919999899819517 -0.7213333260487041,1.6119999837206713 -1.4933333182524002,2.111999978671252 c-0.5773333275029369,0.3906666627213869 -1.6386666501180356,0.9173333240693317 -1.7813333153439346,1.7133333160306556 l3.299999966673831,0 l0,0.4919999950313712 " id="path202" stroke-width="0" class=""/>
    <path fill="#7b7979" fill-rule="nonzero" d="m341.2466649192038,72.21201136623364 c0.9333333239077501,-0.03466666631657358 1.510666651410687,-0.04933333283512394 1.671999983114741,-1.1466666550866644 l0.43199999563730157,0 l0,5.939999940012895 l-0.534666661267154,0 l0,-4.410666622124054 l-1.5693333174848885,0 l0,-0.3826666628021776 " id="path204" stroke-width="0" class=""/>
    <path fill="#7b7979" fill-rule="nonzero" d="m346.3906648672554,74.07067801412995 c0,1.0346666562177345 0.17866666486234076,2.6119999736218324 1.535999984488183,2.6119999736218324 c1.3573333196258424,0 1.535999984488183,-1.5773333174040978 1.535999984488183,-2.6119999736218324 c0,-1.0279999896183933 -0.17866666486234076,-2.6066666403423597 -1.535999984488183,-2.6066666403423597 c-1.3573333196258424,0 -1.535999984488183,1.578666650723966 -1.535999984488183,2.6066666403423597 zm3.6066666302435206,0 c0,1.3906666526225477 -0.3386666632465265,3.0626666357372887 -2.0706666457553373,3.0626666357372887 c-1.7306666491889426,0 -2.069333312435469,-1.671999983114741 -2.069333312435469,-3.0546666358180796 c0,-1.3906666526225477 0.3386666632465265,-3.0626666357372887 2.069333312435469,-3.0626666357372887 c1.7319999825088108,0 2.0706666457553373,1.671999983114741 2.0706666457553373,3.0546666358180796 " id="path206" stroke-width="0" class=""/>
    <path fill="#7b7979" fill-rule="nonzero" d="m352.1119981428099,70.82134471361104 l0,7.80399992118866 l-1.3653333195450517,0 l0,-0.45066666211545653 l0.8319999915977659,0 l0,-6.905333263597483 l-0.8319999915977659,0 l0,-0.44799999547572006 l1.3653333195450517,0 " id="path208" stroke-width="0" class=""/>
    <path fill="#7b7979" fill-rule="nonzero" d="m77.61466758158097,9.400012000561901 c-0.14399999854576717,-0.651999993415557 -0.5426666611863634,-1.050666656056153 -1.2386666541575713,-1.050666656056153 c-1.0266666562985252,0 -1.535999984488183,0.931999990587882 -1.535999984488183,1.8666666478155003 c0,0.9333333239077501 0.509333328189658,1.865333314495632 1.535999984488183,1.865333314495632 c0.6613333266546344,0 1.205333321160866,-0.5173333281088672 1.2719999871542766,-1.2466666540767806 l0.534666661267154,0 c-0.14399999854576717,1.0533333226958896 -0.8306666582778978,1.6973333161922373 -1.8066666484214309,1.6973333161922373 c-1.3399999864675558,0 -2.0706666457553373,-1.0613333226150987 -2.0706666457553373,-2.315999976611089 c0,-1.255999987315858 0.7306666592877816,-2.317333309930957 2.0706666457553373,-2.317333309930957 c0.9333333239077501,0 1.6546666499564544,0.5013333282704487 1.7733333154247255,1.5013333181716095 l-0.534666661267154,0 " id="path210" stroke-width="0" class=""/>
    <path fill="#7b7979" fill-rule="nonzero" d="m82.15600086905214,10.012011994381453 l-0.01733333315828679,0 c-0.06666666599341073,0.1266666653874804 -0.3053333302498211,0.16933333162326325 -0.44933332879558835,0.19466666470075933 c-0.9079999908302542,0.16133333170405395 -2.0359999794387638,0.15333333178484465 -2.0359999794387638,1.0106666564601066 c0,0.5333333279472858 0.47599999519295266,0.8639999912746031 0.9759999901435331,0.8639999912746031 c0.8146666584394792,0 1.535999984488183,-0.5173333281088672 1.5266666512491056,-1.3733333194642612 l0,-0.695999992971208 zm-2.8506666378782426,-0.6453333268162158 c0.05199999947486038,-1.0266666562985252 0.7733333255235644,-1.4679999851749042 1.7733333154247255,-1.4679999851749042 c0.7719999922036962,0 1.6119999837206713,0.23866666425641042 1.6119999837206713,1.409333319100703 l0,2.323999976530298 c0,0.20266666461996863 0.10266666562985252,0.3226666634081079 0.3133333301690304,0.3226666634081079 c0.05999999939406966,0 0.1279999987073486,-0.015999999838418575 0.17066666494313146,-0.033333332996705364 l0,0.44933332879558835 c-0.11866666546827111,0.023999999757627864 -0.20399999793983684,0.033333332996705364 -0.34799999648560404,0.033333332996705364 c-0.5426666611863634,0 -0.627999993657929,-0.3053333302498211 -0.627999993657929,-0.7626666589646187 l-0.01733333315828679,0 c-0.37333332956310006,0.5679999942638594 -0.7546666590454094,0.8906666576719673 -1.5946666505623848,0.8906666576719673 c-0.8066666585202698,0 -1.4679999851749042,-0.39999999596046437 -1.4679999851749042,-1.2813333203933541 c0,-1.2306666542383622 1.1959999879217886,-1.2719999871542766 2.350666642927662,-1.409333319100703 c0.44133332887637905,-0.050666666154992164 0.6866666597321306,-0.1093333322291936 0.6866666597321306,-0.5933333273413555 c0,-0.7213333260487041 -0.5173333281088672,-0.8986666575911767 -1.1453333217667963,-0.8986666575911767 c-0.6613333266546344,0 -1.1533333216860056,0.3053333302498211 -1.1706666548442923,1.0173333230594477 l-0.534666661267154,0 " id="path212" stroke-width="0" class=""/>
    <path fill="#7b7979" fill-rule="nonzero" d="m84.18666751521143,8.026678681097621 l0.4919999950313712,0 l0,1.0266666562985252 l0.01733333315828679,0 c0.2719999972531158,-0.7039999928904174 0.8653333245944713,-1.1199999886893004 1.6546666499564544,-1.086666655692595 l0,0.534666661267154 c-0.9679999902243237,-0.050666666154992164 -1.6293333168789583,0.6626666599745026 -1.6293333168789583,1.5693333174848885 l0,2.3333333097693756 l-0.534666661267154,0 l0,-4.377333289127348 " id="path214" stroke-width="0" class=""/>
    <path fill="#7b7979" fill-rule="nonzero" d="m89.35466746302062,8.349345344505764 c-1.1359999885277188,0 -1.534666651168315,0.9586666569852463 -1.534666651168315,1.8666666478155003 c0,0.9066666575103859 0.3986666626405962,1.865333314495632 1.534666651168315,1.865333314495632 c1.018666656379316,0 1.4346666521781988,-0.9586666569852463 1.4346666521781988,-1.865333314495632 c0,-0.9079999908302542 -0.41599999579888297,-1.8666666478155003 -1.4346666521781988,-1.8666666478155003 zm-2.069333312435469,-2.002666646442058 l0.534666661267154,0 l0,2.5106666413118477 l0.015999999838418575,0 c0.22933333101733294,-0.627999993657929 0.8653333245944713,-0.9586666569852463 1.5186666513298965,-0.9586666569852463 c1.3319999865483463,0 1.9693333134453528,1.0786666557733855 1.9693333134453528,2.317333309930957 c0,1.237333320837703 -0.6373333268970066,2.315999976611089 -1.9693333134453528,2.315999976611089 c-0.7039999928904174,0 -1.3146666533900595,-0.3653333296438908 -1.559999984245811,-0.9599999903051145 l-0.01733333315828679,0 l0,0.8319999915977659 l-0.4919999950313712,0 l0,-6.057333272161299 " id="path216" stroke-width="0" class=""/>
    <path fill="#7b7979" fill-rule="nonzero" d="m92.89600076059061,10.216011992321228 c0,0.9333333239077501 0.509333328189658,1.865333314495632 1.535999984488183,1.865333314495632 c1.025333322978657,0 1.534666651168315,-0.931999990587882 1.534666651168315,-1.865333314495632 c0,-0.9346666572276184 -0.509333328189658,-1.8666666478155003 -1.534666651168315,-1.8666666478155003 c-1.0266666562985252,0 -1.535999984488183,0.931999990587882 -1.535999984488183,1.8666666478155003 zm3.6053332969236522,0 c0,1.2546666539959899 -0.7293333259679133,2.315999976611089 -2.069333312435469,2.315999976611089 c-1.341333319787424,0 -2.0706666457553373,-1.0613333226150987 -2.0706666457553373,-2.315999976611089 c0,-1.255999987315858 0.7293333259679133,-2.317333309930957 2.0706666457553373,-2.317333309930957 c1.3399999864675558,0 2.069333312435469,1.0613333226150987 2.069333312435469,2.317333309930957 " id="path218" stroke-width="0" class=""/>
    <path fill="#7b7979" fill-rule="nonzero" d="m97.71733404523407,8.026678681097621 l0.534666661267154,0 l0,0.7546666590454094 l0.01733333315828679,0 c0.19466666470075933,-0.5253333280280765 0.7799999921229055,-0.8826666577527581 1.398666652541757,-0.8826666577527581 c1.2306666542383622,0 1.603999983801462,0.6453333268162158 1.603999983801462,1.689333316273028 l0,2.8159999715616695 l-0.534666661267154,0 l0,-2.7319999724099713 c0,-0.7546666590454094 -0.24533333085575149,-1.3226666533092688 -1.1106666554502227,-1.3226666533092688 c-0.8493333247560527,0 -1.3573333196258424,0.6453333268162158 -1.3746666527841294,1.5013333181716095 l0,2.5533333075476308 l-0.534666661267154,0 l0,-4.377333289127348 " id="path220" stroke-width="0" class=""/>
    <path fill="#7b7979" fill-rule="nonzero" d="m86.52000082498081,20.741345219360937 c0,0.8399999915169751 0.44933332879558835,1.5266666512491056 1.483999985013323,1.5266666512491056 c0.8493333247560527,0 1.4253333189391213,-0.7039999928904174 1.4253333189391213,-1.5266666512491056 c0,-0.8653333245944713 -0.5253333280280765,-1.5706666508047566 -1.4333333188583306,-1.5706666508047566 c-0.9333333239077501,0 -1.4759999850941137,0.695999992971208 -1.4759999850941137,1.5706666508047566 zm2.765333305406677,-2.5879999738642043 c-0.09333333239077503,-0.6533333267354252 -0.5506666611055726,-1.1026666555310134 -1.2386666541575713,-1.1026666555310134 c-1.3826666527033384,0 -1.6373333167981674,1.5773333174040978 -1.6373333167981674,2.6559999731774835 l0.01733333315828679,0 c0.2799999971723251,-0.5866666607420145 0.9079999908302542,-0.9839999900627423 1.5773333174040978,-0.9839999900627423 c1.187999988002579,0 1.9599999802062753,0.8226666583586884 1.9599999802062753,1.9853333132837716 c0,1.1533333216860056 -0.8399999915169751,2.0106666463612677 -2.0106666463612677,2.0106666463612677 c-1.4413333187775401,0 -2.0786666456745464,-0.8399999915169751 -2.0786666456745464,-3.157333301447932 c0,-0.7039999928904174 0.17866666486234076,-2.9599999701074364 2.1213333119103295,-2.9599999701074364 c1.043999989456812,0 1.6973333161922373,0.515999994788999 1.8239999815797174,1.551999984326602 l-0.534666661267154,0 " id="path222" stroke-width="0" class=""/>
    <path fill="#7b7979" fill-rule="nonzero" d="m74.72266761078684,72.21201136623364 c0.9333333239077501,-0.03466666631657358 1.510666651410687,-0.04933333283512394 1.6706666497948728,-1.1466666550866644 l0.43333332895716975,0 l0,5.939999940012895 l-0.534666661267154,0 l0,-4.410666622124054 l-1.5693333174848885,0 l0,-0.3826666628021776 " id="path224" stroke-width="0" class=""/>
    <path fill="#7b7979" fill-rule="nonzero" d="m83.26000085790302,77.00534465115987 l-3.910666627173473,0 c0.04133333291591466,-1.7653333155055162 1.8493333146572137,-2.1973333111428177 2.858666637797452,-3.207999967602924 c0.3226666634081079,-0.3306666633273172 0.4919999950313712,-0.6426666601764794 0.4919999950313712,-1.1199999886893004 c0,-0.770666658883828 -0.6106666604996422,-1.2133333210800752 -1.3319999865483463,-1.2133333210800752 c-0.9759999901435331,0 -1.3573333196258424,0.7813333254427738 -1.3399999864675558,1.6559999832763226 l-0.534666661267154,0 c-0.025333333077496082,-1.2213333209992845 0.6106666604996422,-2.1039999787520425 1.8999999808122057,-2.1039999787520425 c1.0346666562177345,0 1.8413333147380044,0.5679999942638594 1.8413333147380044,1.671999983114741 c0,0.9919999899819517 -0.7213333260487041,1.6119999837206713 -1.4933333182524002,2.111999978671252 c-0.5759999941830687,0.3906666627213869 -1.6373333167981674,0.9173333240693317 -1.7813333153439346,1.7133333160306556 l3.299999966673831,0 l0,0.4919999950313712 " id="path226" stroke-width="0" class=""/>
    <path fill="#7b7979" fill-rule="nonzero" d="m85.01066750688996,77.00534465115987 l0.7125066594711765,0 l0,-0.8999999909110449 l-0.7125066594711765,0 l0,0.8999999909110449 z" id="path228" stroke-width="0" class=""/>
    <path fill="#7b7979" fill-rule="nonzero" d="m87.7946674787748,74.07067801412995 c0,1.0346666562177345 0.17866666486234076,2.6119999736218324 1.535999984488183,2.6119999736218324 c1.3573333196258424,0 1.534666651168315,-1.5773333174040978 1.534666651168315,-2.6119999736218324 c0,-1.0279999896183933 -0.17733333154247255,-2.6066666403423597 -1.534666651168315,-2.6066666403423597 c-1.3573333196258424,0 -1.535999984488183,1.578666650723966 -1.535999984488183,2.6066666403423597 zm3.6053332969236522,0 c0,1.3906666526225477 -0.3386666632465265,3.0626666357372887 -2.069333312435469,3.0626666357372887 c-1.7306666491889426,0 -2.0706666457553373,-1.671999983114741 -2.0706666457553373,-3.0546666358180796 c0,-1.3906666526225477 0.3399999965663947,-3.0626666357372887 2.0706666457553373,-3.0626666357372887 c1.7306666491889426,0 2.069333312435469,1.671999983114741 2.069333312435469,3.0546666358180796 " id="path230" stroke-width="0" class=""/>
    <path fill="#7b7979" fill-rule="nonzero" d="m92.93866742682637,72.21201136623364 c0.9333333239077501,-0.03466666631657358 1.510666651410687,-0.04933333283512394 1.671999983114741,-1.1466666550866644 l0.43199999563730157,0 l0,5.939999940012895 l-0.534666661267154,0 l0,-4.410666622124054 l-1.5693333174848885,0 l0,-0.3826666628021776 " id="path232" stroke-width="0" class=""/>
    <path fill="#7b7979" fill-rule="nonzero" d="m98.08266737487794,72.21201136623364 c0.9333333239077501,-0.03466666631657358 1.510666651410687,-0.04933333283512394 1.6706666497948728,-1.1466666550866644 l0.43333332895716975,0 l0,5.939999940012895 l-0.534666661267154,0 l0,-4.410666622124054 l-1.5693333174848885,0 l0,-0.3826666628021776 " id="path234" stroke-width="0" class=""/>
    <path fill="#003399" fill-rule="nonzero" d="m76.38266759402275,46.529344958932086 c0,-7.5053332575381795 5.785333274908183,-12.994666535435618 13.065333201388635,-12.994666535435618 c4.5919999536261304,0 7.877333253781411,1.6426666500776403 10.154666564116322,5.189333280927092 l-3.9933332930053025,2.8386666379994288 c-1.1946666546019205,-1.9426666470479887 -3.2479999671989708,-3.3253332997513274 -6.16133327111102,-3.3253332997513274 c-4.590666620306263,0 -7.6906665889998616,3.5493332974891874 -7.6906665889998616,8.291999916260426 c0,4.742666618771239 3.099999968693599,8.361333248893574 7.6906665889998616,8.361333248893574 c3.2853333001552807,0 5.114666615014471,-1.566666650845152 6.5333332673542515,-3.730666628991264 l4.069333292237791,2.798666638403382 c-2.2026666444222904,3.434666631980521 -5.7119999423154315,5.598666610126633 -10.602666559592041,5.598666610126633 c-7.279999926480452,0 -13.065333201388635,-5.522666610894145 -13.065333201388635,-13.027999868432325 " id="path236" stroke-width="2" class="" opacity="0.75" fill-opacity="0.75" stroke-opacity="0.75" stroke="#6699FF"/>
    <path fill="#003399" stroke="#6699FF" stroke-width="0.6666666599341073" stroke-miterlimit="10" d="m76.38266759402275,46.529344958932086 c0,-7.5053332575381795 5.785333274908183,-12.994666535435618 13.065333201388635,-12.994666535435618 c4.5919999536261304,0 7.877333253781411,1.6426666500776403 10.154666564116322,5.189333280927092 l-3.9933332930053025,2.8386666379994288 c-1.1946666546019205,-1.9426666470479887 -3.2479999671989708,-3.3253332997513274 -6.16133327111102,-3.3253332997513274 c-4.590666620306263,0 -7.6906665889998616,3.5493332974891874 -7.6906665889998616,8.291999916260426 c0,4.742666618771239 3.099999968693599,8.361333248893574 7.6906665889998616,8.361333248893574 c3.2853333001552807,0 5.114666615014471,-1.566666650845152 6.5333332673542515,-3.730666628991264 l4.069333292237791,2.798666638403382 c-2.2026666444222904,3.434666631980521 -5.7119999423154315,5.598666610126633 -10.602666559592041,5.598666610126633 c-7.279999926480452,0 -13.065333201388635,-5.522666610894145 -13.065333201388635,-13.027999868432325 z" id="path238" class="" opacity="0.75" fill-opacity="0.75" stroke-opacity="0.75"/>
    <path fill="none" stroke="#d3d2d2" stroke-width="0.7999999919209287" stroke-miterlimit="10" d="m1.222668353051489,82.58667792812821 l57.33333275433323,0 l0,-81.33333251196109 l-57.33333275433323,0 l0,81.33333251196109 z" id="path240" class="" transform="matrix(1,0,0,1,0,0) "/>
    <path fill="none" stroke="#d3d2d2" stroke-width="0.7999999919209287" stroke-miterlimit="10" d="m64.3333343823737,82.58667792812821 l46.66666619538751,0 l0,-81.33333251196109 l-46.66666619538751,0 l0,81.33333251196109 z" id="path242" class="" transform="matrix(1,0,0,1,0,0) "/>
    <path fill="none" stroke="#d3d2d2" stroke-width="0.7999999919209287" stroke-miterlimit="10" d="m116.7226671866356,82.58667792812821 l49.33333283512394,0 l0,-81.33333251196109 l-49.33333283512394,0 l0,81.33333251196109 z" id="path244" class="" transform="matrix(1,0,0,1,0,0) "/>
    <path fill="none" stroke="#d3d2d2" stroke-width="0.7999999919209287" stroke-miterlimit="10" d="m171.82666663014913,82.58667792812821 l63.11199936264207,0 l0,-81.33333251196109 l-63.11199936264207,0 l0,81.33333251196109 z" id="path246" class="" transform="matrix(1,0,0,1,0,0) "/>
    <path fill="none" stroke="#d3d2d2" stroke-width="0.7999999919209287" stroke-miterlimit="10" d="m240.67999926814372,82.58667792812821 l63.11199936264207,0 l0,-81.33333251196109 l-63.11199936264207,0 l0,81.33333251196109 z" id="path248" class="" transform="matrix(1,0,0,1,0,0) "/>
    <path fill="none" stroke="#d3d2d2" stroke-width="0.7999999919209287" stroke-miterlimit="10" d="m309.5306652394986,82.58667792812821 l67.55573265109885,0 l0,-81.33333251196109 l-67.55573265109885,0 l0,81.33333251196109 z" id="path250" class="" transform="matrix(1,0,0,1,0,0) "/>


 </g>
</svg>
